<svg width="45" height="46" viewBox="0 0 45 46" fill="none" xmlns="http://www.w3.org/2000/svg">
<path d="M42.1542 0.5H2.84582C2.20157 0.5 1.5837 0.760758 1.12814 1.22491C0.672586 1.68906 0.416656 2.31859 0.416656 2.975V43.025C0.416656 43.35 0.479489 43.6719 0.601566 43.9721C0.723643 44.2724 0.902574 44.5453 1.12814 44.7751C1.35371 45.0049 1.6215 45.1872 1.91622 45.3116C2.21094 45.436 2.52682 45.5 2.84582 45.5H24.0017V28.0625H18.26V21.3125H24.0017V16.25C23.8827 15.0615 24.0204 13.8608 24.4052 12.7322C24.7899 11.6036 25.4123 10.5745 26.2287 9.71693C27.0451 8.85937 28.0358 8.19419 29.1312 7.76804C30.2267 7.34188 31.4004 7.16507 32.57 7.25C34.2888 7.23922 36.0068 7.32937 37.7154 7.52V13.595H34.2042C31.4217 13.595 30.8917 14.945 30.8917 16.9025V21.245H37.5167L36.6554 27.995H30.8917V45.5H42.1542C42.4732 45.5 42.789 45.436 43.0838 45.3116C43.3785 45.1872 43.6463 45.0049 43.8718 44.7751C44.0974 44.5453 44.2763 44.2724 44.3984 43.9721C44.5205 43.6719 44.5833 43.35 44.5833 43.025V2.975C44.5833 2.64998 44.5205 2.32814 44.3984 2.02786C44.2763 1.72758 44.0974 1.45474 43.8718 1.22491C43.6463 0.995086 43.3785 0.812779 43.0838 0.688398C42.789 0.564018 42.4732 0.5 42.1542 0.5V0.5Z" fill="white"/>
</svg>
