<svg width="53" height="54" viewBox="0 0 53 54" fill="none" xmlns="http://www.w3.org/2000/svg">
<path d="M38.2925 12.285C37.7684 12.285 37.256 12.4434 36.8202 12.74C36.3844 13.0367 36.0448 13.4584 35.8442 13.9518C35.6436 14.4451 35.5912 14.988 35.6934 15.5117C35.7957 16.0355 36.048 16.5166 36.4187 16.8942C36.7893 17.2718 37.2615 17.5289 37.7755 17.6331C38.2896 17.7373 38.8224 17.6838 39.3066 17.4795C39.7908 17.2751 40.2047 16.9291 40.4959 16.485C40.7871 16.041 40.9425 15.519 40.9425 14.985C40.9425 14.2689 40.6633 13.5822 40.1663 13.0758C39.6693 12.5695 38.9953 12.285 38.2925 12.285ZM48.4508 17.73C48.4079 15.8632 48.0647 14.0162 47.435 12.2625C46.8735 10.762 45.9995 9.40338 44.8733 8.28C43.7798 7.12671 42.4432 6.2419 40.9646 5.6925C39.2479 5.03136 37.4331 4.67372 35.5983 4.635C33.2575 4.5 32.5067 4.5 26.5 4.5C20.4933 4.5 19.7425 4.5 17.4017 4.635C15.5669 4.67372 13.752 5.03136 12.0354 5.6925C10.5595 6.24746 9.22405 7.13151 8.12666 8.28C6.99472 9.39415 6.1263 10.756 5.58707 12.2625C4.93818 14.0115 4.58716 15.8606 4.54916 17.73C4.41666 20.115 4.41666 20.88 4.41666 27C4.41666 33.12 4.41666 33.885 4.54916 36.27C4.58716 38.1394 4.93818 39.9885 5.58707 41.7375C6.1263 43.244 6.99472 44.6059 8.12666 45.72C9.22405 46.8685 10.5595 47.7525 12.0354 48.3075C13.752 48.9686 15.5669 49.3263 17.4017 49.365C19.7425 49.5 20.4933 49.5 26.5 49.5C32.5067 49.5 33.2575 49.5 35.5983 49.365C37.4331 49.3263 39.2479 48.9686 40.9646 48.3075C42.4432 47.7581 43.7798 46.8733 44.8733 45.72C46.0045 44.6008 46.8792 43.2409 47.435 41.7375C48.0647 39.9838 48.4079 38.1368 48.4508 36.27C48.4508 33.885 48.5833 33.12 48.5833 27C48.5833 20.88 48.5833 20.115 48.4508 17.73ZM44.4758 36C44.4597 37.4282 44.2059 38.8433 43.725 40.185C43.3724 41.1642 42.8061 42.049 42.0687 42.7725C41.3525 43.5161 40.4859 44.092 39.5292 44.46C38.2123 44.9499 36.8234 45.2086 35.4217 45.225C33.2133 45.3375 32.3962 45.36 26.5883 45.36C20.7804 45.36 19.9633 45.36 17.755 45.225C16.2995 45.2528 14.8501 45.0244 13.4708 44.55C12.5561 44.1632 11.7292 43.5888 11.0417 42.8625C10.3087 42.1397 9.74944 41.2542 9.40749 40.275C8.86834 38.9141 8.5693 37.4669 8.52416 36C8.52416 33.75 8.39166 32.9175 8.39166 27C8.39166 21.0825 8.39166 20.25 8.52416 18C8.53405 16.5399 8.79567 15.0929 9.29707 13.725C9.68584 12.7753 10.2826 11.9287 11.0417 11.25C11.7126 10.4764 12.5417 9.86197 13.4708 9.45C14.8169 8.9551 16.2357 8.69643 17.6667 8.685C19.875 8.685 20.6921 8.55 26.5 8.55C32.3079 8.55 33.125 8.55 35.3333 8.685C36.7351 8.70138 38.124 8.96005 39.4408 9.45C40.4444 9.82947 41.3451 10.4464 42.0687 11.25C42.7924 11.9412 43.3579 12.7861 43.725 13.725C44.2158 15.0951 44.4698 16.5415 44.4758 18C44.5862 20.25 44.6083 21.0825 44.6083 27C44.6083 32.9175 44.5862 33.75 44.4758 36ZM26.5 15.4575C24.2603 15.4619 22.0722 16.1427 20.2121 17.4137C18.352 18.6847 16.9034 20.4889 16.0493 22.5984C15.1953 24.708 14.9741 27.028 15.4137 29.2656C15.8533 31.5031 16.934 33.5577 18.5192 35.1697C20.1045 36.7817 22.1231 37.8788 24.3201 38.3223C26.517 38.7659 28.7937 38.536 30.8625 37.6617C32.9313 36.7874 34.6993 35.308 35.9431 33.4103C37.187 31.5127 37.8508 29.2819 37.8508 27C37.8537 25.4815 37.562 23.9774 36.9923 22.5742C36.4226 21.1709 35.5863 19.8963 34.5314 18.8236C33.4765 17.7509 32.2239 16.9013 30.8455 16.3236C29.4672 15.7459 27.9904 15.4516 26.5 15.4575ZM26.5 34.4925C25.0456 34.4925 23.6238 34.0531 22.4145 33.2298C21.2051 32.4065 20.2626 31.2363 19.706 29.8673C19.1494 28.4982 19.0038 26.9917 19.2875 25.5383C19.5713 24.0849 20.2717 22.7498 21.3001 21.702C22.3285 20.6542 23.6389 19.9406 25.0653 19.6515C26.4918 19.3624 27.9704 19.5107 29.3141 20.0778C30.6579 20.6449 31.8064 21.6053 32.6144 22.8374C33.4224 24.0695 33.8537 25.5181 33.8537 27C33.8537 27.9839 33.6635 28.9582 33.294 29.8673C32.9244 30.7763 32.3827 31.6023 31.6999 32.298C31.017 32.9937 30.2063 33.5456 29.3141 33.9222C28.4219 34.2987 27.4657 34.4925 26.5 34.4925Z" fill="white"/>
</svg>
