<svg width="880" height="1123" viewBox="0 0 880 1123" fill="none" xmlns="http://www.w3.org/2000/svg">
<g opacity="0.1" filter="url(#filter0_f_2_968)">
<path d="M446.534 355.929H256.525L256.367 356.169C146.47 360.084 50.7155 420.8 -3.0083 510.036C-8.77573 519.703 -8.93375 531.766 -3.40335 541.592C2.12704 551.419 12.3978 557.49 23.5376 557.49H77.4195C85.6361 557.49 93.5366 560.766 99.304 566.678C105.071 572.51 108.39 580.499 108.39 588.807V730.691H94.3267C38.1537 730.691 -7.43265 776.707 -7.43265 833.588V862.988C-7.43265 905.569 -34.6896 943.277 -74.9035 956.139C-115.038 969.001 -158.808 953.982 -183.062 919.15C-240.815 823.922 -277 712.636 -277 592.882C-277 274.522 -21.3376 16 293.5 16C433.498 16 561.803 67.1292 661.192 151.892C554.061 167.39 468.182 249.996 446.534 356.089V355.929ZM863.921 606.463C859.102 815.214 744.385 996.643 576.103 1093.95C546.555 1111.28 510.055 1111.36 480.348 1094.11C450.721 1076.85 432.471 1044.9 432.471 1010.3C431.523 925.222 431.523 833.508 431.523 833.508C431.523 776.707 386.016 730.611 329.764 730.611H281.886C292.947 652.159 332.213 582.895 389.018 533.683C407.584 598.873 446.06 655.515 497.414 696.498C509.344 705.845 526.172 705.126 537.312 694.82C539.84 692.504 542.447 690.027 544.975 687.55C556.984 676.446 558.406 657.752 548.135 644.889C532.887 625.636 510.687 585.132 511.398 586.65C558.169 636.741 624.534 668.057 698.009 668.057C761.293 668.057 819.283 644.81 864 606.383L863.921 606.463Z" fill="#5CC2AA"/>
</g>
<defs>
<filter id="filter0_f_2_968" x="-293" y="0" width="1173" height="1123" filterUnits="userSpaceOnUse" color-interpolation-filters="sRGB">
<feFlood flood-opacity="0" result="BackgroundImageFix"/>
<feBlend mode="normal" in="SourceGraphic" in2="BackgroundImageFix" result="shape"/>
<feGaussianBlur stdDeviation="8" result="effect1_foregroundBlur_2_968"/>
</filter>
</defs>
</svg>
