<svg width="991" height="782" viewBox="0 0 991 782" fill="none" xmlns="http://www.w3.org/2000/svg">
<g opacity="0.05" filter="url(#filter0_f_2_969)">
<path fill-rule="evenodd" clip-rule="evenodd" d="M977.011 166.994C997.503 166.994 1014.24 183.846 1014.24 204.693C1014.24 225.54 997.6 242.393 977.011 242.393C956.423 242.393 939.779 225.54 939.779 204.693C939.779 183.846 956.423 166.994 977.011 166.994ZM422.186 117.896C465.96 117.896 501.46 153.843 501.46 198.167C501.46 242.49 465.96 278.437 422.186 278.437C378.412 278.437 342.911 242.49 342.911 198.167C342.911 153.843 378.412 117.896 422.186 117.896ZM939.875 121.988C1006.74 121.988 1061 176.93 1061 244.634C1061 312.337 1006.74 367.279 939.875 367.279C873.012 367.279 818.751 312.337 818.751 244.634C818.751 176.93 873.012 121.988 939.875 121.988ZM855.983 477.943C883.691 477.943 906.203 500.738 906.203 528.794C906.203 556.849 883.691 579.645 855.983 579.645C828.275 579.645 805.763 556.849 805.763 528.794C805.763 500.738 828.275 477.943 855.983 477.943ZM16.0962 268.208C45.4394 124.326 171.374 16 322.227 16C494.726 16 634.803 157.837 634.803 332.502C634.803 507.168 494.726 649.004 322.227 649.004C232.754 649.004 152.037 610.817 94.9859 549.738C75.1673 509.116 62.0831 464.597 57.2728 417.546C90.0794 404.687 125.099 396.212 161.561 392.997C181.187 391.438 196.292 374.878 196.292 354.908V306.492C196.292 285.451 179.456 268.305 158.579 268.305H16L16.0962 268.208ZM792.967 393.289C894.562 393.289 977.011 476.774 977.011 579.645C977.011 682.515 894.562 766 792.967 766C691.373 766 608.923 682.515 608.923 579.645C608.923 476.774 691.373 393.289 792.967 393.289Z" fill="#4E70A9"/>
</g>
<defs>
<filter id="filter0_f_2_969" x="0" y="0" width="1077" height="782" filterUnits="userSpaceOnUse" color-interpolation-filters="sRGB">
<feFlood flood-opacity="0" result="BackgroundImageFix"/>
<feBlend mode="normal" in="SourceGraphic" in2="BackgroundImageFix" result="shape"/>
<feGaussianBlur stdDeviation="8" result="effect1_foregroundBlur_2_969"/>
</filter>
</defs>
</svg>
