<svg width="227" height="51" viewBox="0 0 227 51" fill="none" xmlns="http://www.w3.org/2000/svg">
<path d="M203.074 27.2829C203.352 27.2829 203.548 27.2299 203.662 27.124C203.775 27.018 203.833 26.8415 203.833 26.5968C203.833 26.0243 203.51 25.5753 202.865 25.2474C202.219 24.9196 201.346 24.7556 200.252 24.7556C199.157 24.7556 198.292 24.9851 197.664 25.4417C197.033 25.9007 196.718 26.5136 196.718 27.2829H203.074ZM159.077 27.2829C159.354 27.2829 159.551 27.2299 159.664 27.124C159.778 27.018 159.836 26.8415 159.836 26.5968C159.836 26.0243 159.513 25.5753 158.867 25.2474C158.221 24.9196 157.349 24.7556 156.254 24.7556C155.16 24.7556 154.294 24.9851 153.666 25.4417C153.036 25.9007 152.721 26.5136 152.721 27.2829H159.077ZM169.995 32.5341C171.027 32.5341 171.831 32.3752 172.411 32.0549C172.992 31.7371 173.282 31.2907 173.282 30.7181C173.282 30.1784 172.987 29.7446 172.399 29.4167C171.809 29.0888 171.024 28.9248 170.043 28.9248C169.16 28.9248 168.477 29.0812 167.995 29.3915C167.513 29.7017 167.271 30.1431 167.271 30.7156C167.271 31.2882 167.508 31.7346 167.982 32.0524C168.457 32.3702 169.128 32.5316 169.995 32.5316V32.5341ZM196.67 29.5403C196.67 30.4558 196.993 31.1469 197.639 31.6135C198.284 32.0801 199.238 32.3122 200.496 32.3122C201.821 32.3122 202.951 32.0171 203.884 31.4294C204.408 31.1015 204.817 30.9376 205.11 30.9376C205.387 30.9376 205.657 31.0687 205.919 31.331C206.197 31.6085 206.335 31.9112 206.335 32.239C206.335 32.6325 206.171 32.9427 205.844 33.1723C205.158 33.6969 204.355 34.0954 203.44 34.3754C202.524 34.6528 201.543 34.7915 200.496 34.7915C199.089 34.7915 197.863 34.5368 196.817 34.0298C195.77 33.5229 194.965 32.8065 194.4 31.8834C193.835 30.9603 193.553 29.8757 193.553 28.6323C193.553 26.6195 194.138 25.0583 195.308 23.946C196.479 22.8337 198.126 22.2763 200.252 22.2763C201.561 22.2763 202.719 22.4806 203.725 22.8892C204.731 23.2978 205.516 23.8678 206.081 24.5942C206.646 25.3231 206.928 26.1529 206.928 27.0861C206.928 27.8706 206.678 28.4759 206.179 28.9021C205.68 29.3284 204.973 29.5403 204.055 29.5403H196.67ZM152.673 29.5403C152.673 30.4558 152.995 31.1469 153.641 31.6135C154.287 32.0801 155.24 32.3122 156.501 32.3122C157.825 32.3122 158.955 32.0171 159.889 31.4294C160.411 31.1015 160.822 30.9376 161.114 30.9376C161.392 30.9376 161.662 31.0687 161.924 31.331C162.202 31.6085 162.34 31.9112 162.34 32.239C162.34 32.6325 162.176 32.9427 161.848 33.1723C161.162 33.6969 160.36 34.0954 159.445 34.3754C158.529 34.6528 157.548 34.7915 156.501 34.7915C155.094 34.7915 153.868 34.5368 152.821 34.0298C151.775 33.5229 150.968 32.8065 150.405 31.8834C149.84 30.9603 149.558 29.8757 149.558 28.6323C149.558 26.6195 150.143 25.0583 151.313 23.946C152.483 22.8337 154.13 22.2763 156.257 22.2763C157.566 22.2763 158.723 22.4806 159.73 22.8892C160.736 23.2978 161.521 23.8678 162.086 24.5942C162.65 25.3231 162.933 26.1529 162.933 27.0861C162.933 27.8706 162.683 28.4759 162.184 28.9021C161.684 29.3284 160.978 29.5403 160.06 29.5403H152.675H152.673ZM180.304 34.7915C179.797 34.7915 179.403 34.6604 179.126 34.3981C178.848 34.1358 178.709 33.7776 178.709 33.3186V23.7492C178.709 23.2751 178.843 22.9119 179.113 22.6571C179.383 22.4049 179.764 22.2763 180.253 22.2763C180.742 22.2763 181.128 22.4074 181.406 22.6697C181.683 22.932 181.822 23.2902 181.822 23.7492V24.4605C182.985 23.0052 184.571 22.2763 186.584 22.2763C188.155 22.2763 189.394 22.7706 190.302 23.7619C191.21 24.7506 191.664 26.0974 191.664 27.7974V33.3186C191.664 33.7776 191.517 34.1358 191.222 34.3981C190.927 34.6604 190.536 34.7915 190.044 34.7915C189.553 34.7915 189.144 34.6604 188.866 34.3981C188.589 34.1358 188.45 33.7776 188.45 33.3186V27.7974C188.45 26.8642 188.221 26.1378 187.764 25.6132C187.305 25.0885 186.667 24.8288 185.85 24.8288C184.606 24.8288 183.64 25.192 182.954 25.9209C182.268 26.6498 181.923 27.6663 181.923 28.9753V33.3186C181.923 33.7776 181.777 34.1358 181.481 34.3981C181.186 34.6604 180.795 34.7915 180.304 34.7915ZM169.236 34.7915C168.222 34.7915 167.327 34.62 166.55 34.277C165.773 33.934 165.168 33.4548 164.734 32.8419C164.3 32.229 164.083 31.5202 164.083 30.7181C164.083 29.5075 164.585 28.5415 165.591 27.8226C166.598 27.1038 167.96 26.7431 169.677 26.7431C171.166 26.7431 172.361 27.0609 173.261 27.699V27.1114C173.261 26.3421 173.024 25.7544 172.55 25.3433C172.076 24.9347 171.39 24.7304 170.49 24.7304C169.148 24.7304 167.995 25.0179 167.029 25.5905C166.62 25.82 166.267 25.9335 165.975 25.9335C165.614 25.9335 165.296 25.7695 165.019 25.4417C164.84 25.2121 164.749 24.975 164.749 24.7304C164.749 24.3218 164.961 23.9611 165.387 23.6509C165.977 23.2246 166.721 22.8892 167.619 22.6445C168.52 22.3999 169.468 22.2763 170.467 22.2763C172.364 22.2763 173.857 22.705 174.946 23.5651C176.033 24.4227 176.578 25.6056 176.578 27.1114V33.4169C176.578 33.8432 176.434 34.1786 176.149 34.4233C175.864 34.6679 175.476 34.7915 174.984 34.7915C174.492 34.7915 174.084 34.678 173.806 34.4485C173.529 34.219 173.39 33.8911 173.39 33.4674V33.1975C172.457 34.2619 171.075 34.7915 169.244 34.7915H169.236ZM215.738 25.0734C214.641 25.0734 213.771 25.4215 213.125 26.1176C212.48 26.8137 212.157 27.7646 212.157 28.9753V33.3186C212.157 33.7776 212.01 34.1358 211.715 34.3981C211.42 34.6604 211.029 34.7915 210.537 34.7915C210.046 34.7915 209.637 34.6604 209.36 34.3981C209.082 34.1358 208.943 33.7776 208.943 33.3186V23.7492C208.943 23.2751 209.077 22.9119 209.347 22.6571C209.617 22.4024 209.998 22.2763 210.487 22.2763C210.976 22.2763 211.362 22.4074 211.64 22.6697C211.917 22.932 212.056 23.2902 212.056 23.7492V24.5589C212.563 23.9056 213.155 23.4012 213.834 23.0506C214.512 22.7 215.244 22.5234 216.031 22.5234H216.571C217.095 22.5234 217.499 22.6344 217.786 22.8539C218.074 23.0758 218.215 23.3886 218.215 23.7997C218.215 24.2108 218.071 24.5236 217.786 24.7455C217.499 24.9675 217.095 25.0759 216.571 25.0759H215.736L215.738 25.0734ZM145.434 34.7915C144.927 34.7915 144.533 34.6604 144.256 34.3981C143.978 34.1358 143.84 33.7776 143.84 33.3186V17.3932C143.84 16.9342 143.978 16.576 144.256 16.3137C144.533 16.0514 144.927 15.9203 145.434 15.9203C145.941 15.9203 146.317 16.0514 146.612 16.3137C146.907 16.576 147.053 16.9342 147.053 17.3932V33.3186C147.053 33.7776 146.907 34.1358 146.612 34.3981C146.317 34.6604 145.926 34.7915 145.434 34.7915ZM133.385 34.7915C131.536 34.7915 129.935 34.4409 128.575 33.7372C127.218 33.0335 126.179 32.0196 125.458 30.6954C124.739 29.3713 124.378 27.7999 124.378 25.9839C124.378 24.1679 124.739 22.5941 125.458 21.2598C126.177 19.9256 127.213 18.9041 128.563 18.1928C129.912 17.4815 131.504 17.1259 133.335 17.1259C134.856 17.1259 136.263 17.3882 137.554 17.9103C138.846 18.4349 139.804 19.1285 140.425 19.9962C140.621 20.2585 140.72 20.5284 140.72 20.8058C140.72 21.2144 140.498 21.5827 140.056 21.9105C139.86 22.0568 139.615 22.1325 139.32 22.1325C139.075 22.1325 138.828 22.0795 138.583 21.9736C138.339 21.8677 138.135 21.7163 137.971 21.5196C137.416 20.8815 136.767 20.4199 136.031 20.1324C135.294 19.8448 134.394 19.7036 133.332 19.7036C131.549 19.7036 130.159 20.256 129.16 21.3607C128.162 22.4654 127.665 24.0065 127.665 25.9865C127.665 27.9664 128.167 29.4797 129.173 30.5744C130.179 31.6715 131.582 32.2189 133.38 32.2189C135.441 32.2189 137.085 31.6135 138.314 30.4029C138.821 29.9287 139.287 29.6916 139.713 29.6916C140.009 29.6916 140.278 29.79 140.523 29.9867C140.899 30.3146 141.088 30.6727 141.088 31.0662C141.088 31.3613 140.982 31.6463 140.768 31.9263C140.064 32.8267 139.063 33.5304 137.761 34.0374C136.46 34.5444 134.999 34.7991 133.38 34.7991L133.385 34.7915Z" fill="#4E70A9"/>
<path d="M106.614 40.918C106.173 40.918 105.79 40.8348 105.467 40.6658C105.141 40.4968 104.894 40.2547 104.723 39.9394C104.551 39.6241 104.465 39.2483 104.465 38.8145C104.465 38.3807 104.551 38.0048 104.723 37.687C104.894 37.3692 105.141 37.1246 105.464 36.9556C105.787 36.7866 106.165 36.7009 106.604 36.7009C106.968 36.7009 107.303 36.7639 107.613 36.8875C107.921 37.0136 108.15 37.1776 108.299 37.3869C108.345 37.45 108.37 37.513 108.37 37.5811C108.37 37.6795 108.317 37.7678 108.211 37.8459C108.163 37.8813 108.105 37.8989 108.034 37.8989C107.976 37.8989 107.918 37.8863 107.858 37.8611C107.8 37.8359 107.749 37.8005 107.712 37.7526C107.578 37.6013 107.424 37.4903 107.247 37.4222C107.071 37.3541 106.857 37.3188 106.602 37.3188C106.176 37.3188 105.843 37.45 105.606 37.7148C105.366 37.9796 105.247 38.3479 105.247 38.8195C105.247 39.2912 105.368 39.6544 105.608 39.9167C105.848 40.179 106.183 40.3102 106.614 40.3102C107.106 40.3102 107.5 40.1664 107.792 39.8763C107.913 39.7628 108.024 39.7073 108.128 39.7073C108.198 39.7073 108.261 39.73 108.322 39.778C108.413 39.8562 108.458 39.9419 108.458 40.0352C108.458 40.1059 108.433 40.174 108.382 40.2395C108.213 40.4539 107.976 40.6229 107.664 40.744C107.353 40.865 107.005 40.9256 106.617 40.9256L106.614 40.918Z" fill="#5CC2AA"/>
<path d="M112.804 40.86C112.506 40.86 112.277 40.7818 112.113 40.6254C111.949 40.4691 111.866 40.2496 111.866 39.9697V37.0514C111.866 36.943 111.901 36.8572 111.972 36.7942C112.042 36.7311 112.135 36.7009 112.252 36.7009C112.368 36.7009 112.463 36.7336 112.537 36.7967C112.61 36.8623 112.645 36.9455 112.645 37.0514V39.9697C112.645 40.0605 112.668 40.1311 112.713 40.1815C112.758 40.232 112.819 40.2572 112.897 40.2572H114.774C114.89 40.2572 114.981 40.2824 115.044 40.3354C115.107 40.3883 115.137 40.464 115.137 40.5599C115.137 40.6557 115.104 40.7263 115.041 40.7793C114.975 40.8323 114.887 40.8575 114.774 40.8575H112.804V40.86Z" fill="#5CC2AA"/>
<path d="M119.369 40.86C119.072 40.86 118.842 40.7818 118.678 40.6254C118.514 40.4691 118.431 40.2496 118.431 39.9697V37.6265C118.431 37.3541 118.509 37.1397 118.668 36.9884C118.827 36.8371 119.046 36.7589 119.326 36.7589H121.15C121.266 36.7589 121.357 36.7841 121.42 36.8371C121.483 36.89 121.513 36.9657 121.513 37.0615C121.513 37.1574 121.48 37.228 121.417 37.281C121.352 37.3339 121.263 37.3592 121.15 37.3592H119.463C119.384 37.3592 119.324 37.3844 119.278 37.4348C119.233 37.4853 119.21 37.5559 119.21 37.6467V38.4614H120.706C120.822 38.4614 120.913 38.4866 120.976 38.5396C121.039 38.5925 121.069 38.6682 121.069 38.764C121.069 38.8599 121.036 38.9305 120.973 38.9835C120.908 39.0364 120.819 39.0617 120.706 39.0617H119.21V39.9646C119.21 40.0554 119.233 40.126 119.278 40.1765C119.324 40.2269 119.384 40.2521 119.463 40.2521H121.278C121.395 40.2521 121.485 40.2774 121.548 40.3303C121.611 40.3833 121.642 40.459 121.642 40.5548C121.642 40.6507 121.609 40.7213 121.546 40.7742C121.48 40.8272 121.392 40.8524 121.278 40.8524H119.369V40.86Z" fill="#5CC2AA"/>
<path d="M127.925 39.0011V38.4916C127.925 38.1007 127.836 37.8081 127.657 37.6089C127.481 37.4121 127.216 37.3138 126.863 37.3138C126.156 37.3138 125.801 37.7072 125.801 38.4916V39.0011H127.922H127.925ZM125.41 40.9104C125.294 40.9104 125.198 40.8802 125.127 40.8171C125.057 40.7541 125.021 40.6683 125.021 40.5599V38.5093C125.021 37.9418 125.183 37.5004 125.508 37.1801C125.834 36.8598 126.285 36.6983 126.863 36.6983C127.241 36.6983 127.569 36.7715 127.846 36.9152C128.124 37.059 128.336 37.2684 128.482 37.5433C128.628 37.8157 128.701 38.1385 128.701 38.5093V40.5599C128.701 40.6683 128.666 40.7541 128.595 40.8171C128.525 40.8802 128.432 40.9104 128.316 40.9104C128.199 40.9104 128.104 40.8777 128.03 40.8146C127.957 40.749 127.922 40.6658 127.922 40.5599V39.6039H125.801V40.5599C125.801 40.6658 125.766 40.7515 125.692 40.8146C125.619 40.8802 125.526 40.9104 125.407 40.9104H125.41Z" fill="#5CC2AA"/>
<path d="M132.502 40.918C132.386 40.918 132.291 40.8877 132.223 40.8247C132.152 40.7616 132.117 40.6759 132.117 40.5674V38.358C132.117 37.8384 132.278 37.4323 132.603 37.1397C132.929 36.8471 133.378 36.7009 133.953 36.7009C134.528 36.7009 134.977 36.8471 135.3 37.1397C135.625 37.4323 135.786 37.8384 135.786 38.358V40.5674C135.786 40.6759 135.751 40.7616 135.68 40.8247C135.61 40.8877 135.517 40.918 135.398 40.918C135.279 40.918 135.186 40.8852 135.113 40.8222C135.04 40.7566 135.005 40.6734 135.005 40.5674V38.3403C135.005 38.0074 134.914 37.7551 134.735 37.5786C134.556 37.402 134.293 37.3138 133.95 37.3138C133.607 37.3138 133.345 37.402 133.166 37.5786C132.987 37.7551 132.896 38.0074 132.896 38.3403V40.5674C132.896 40.6734 132.861 40.7591 132.787 40.8222C132.714 40.8877 132.621 40.918 132.502 40.918Z" fill="#5CC2AA"/>
<path d="M139.787 40.918C139.671 40.918 139.575 40.8877 139.507 40.8247C139.436 40.7616 139.401 40.6759 139.401 40.5674V37.0514C139.401 36.943 139.436 36.8572 139.507 36.7942C139.577 36.7311 139.671 36.7009 139.787 36.7009C139.903 36.7009 139.993 36.7311 140.069 36.7942C140.142 36.8572 140.18 36.943 140.18 37.0514V40.5674C140.18 40.6759 140.142 40.7616 140.069 40.8247C139.996 40.8877 139.9 40.918 139.787 40.918Z" fill="#5CC2AA"/>
<path d="M144.183 40.918C144.067 40.918 143.971 40.8877 143.903 40.8247C143.832 40.7616 143.797 40.6759 143.797 40.5674V38.358C143.797 37.8384 143.958 37.4323 144.284 37.1397C144.609 36.8471 145.058 36.7009 145.631 36.7009C146.203 36.7009 146.655 36.8471 146.98 37.1397C147.303 37.4323 147.467 37.8384 147.467 38.358V40.5674C147.467 40.6759 147.431 40.7616 147.361 40.8247C147.29 40.8877 147.197 40.918 147.078 40.918C146.96 40.918 146.866 40.8852 146.793 40.8222C146.72 40.7566 146.685 40.6734 146.685 40.5674V38.3403C146.685 38.0074 146.594 37.7551 146.415 37.5786C146.236 37.402 145.974 37.3138 145.631 37.3138C145.288 37.3138 145.025 37.402 144.846 37.5786C144.667 37.7551 144.576 38.0074 144.576 38.3403V40.5674C144.576 40.6734 144.541 40.7591 144.468 40.8222C144.395 40.8852 144.301 40.918 144.183 40.918Z" fill="#5CC2AA"/>
<path d="M152.937 40.918C152.496 40.918 152.113 40.8348 151.79 40.6658C151.465 40.4968 151.217 40.2547 151.046 39.9394C150.874 39.6241 150.789 39.2483 150.789 38.8145C150.789 38.3807 150.874 38.0048 151.046 37.687C151.217 37.3692 151.465 37.1246 151.787 36.9556C152.11 36.7866 152.489 36.7009 152.927 36.7009C153.291 36.7009 153.626 36.7639 153.936 36.8875C154.247 37.0111 154.474 37.1776 154.622 37.3869C154.67 37.45 154.693 37.513 154.693 37.5811C154.693 37.6795 154.64 37.7678 154.534 37.8459C154.486 37.8813 154.428 37.8989 154.358 37.8989C154.299 37.8989 154.241 37.8863 154.181 37.8611C154.12 37.8359 154.073 37.8005 154.035 37.7526C153.901 37.6013 153.747 37.4903 153.573 37.4222C153.397 37.3541 153.182 37.3188 152.927 37.3188C152.501 37.3188 152.168 37.45 151.931 37.7148C151.692 37.9796 151.573 38.3479 151.573 38.8195C151.573 39.2912 151.694 39.6544 151.934 39.9167C152.173 40.179 152.509 40.3102 152.937 40.3102C153.293 40.3102 153.571 40.2421 153.772 40.1059C153.974 39.9697 154.075 39.7805 154.075 39.5384V39.4097C154.075 39.3265 154.057 39.271 154.02 39.2407C153.982 39.2105 153.919 39.1928 153.828 39.1928H153.061C152.953 39.1928 152.867 39.1676 152.804 39.1146C152.741 39.0617 152.711 38.9885 152.711 38.8952C152.711 38.8019 152.741 38.7212 152.801 38.6707C152.862 38.6177 152.95 38.5925 153.061 38.5925H154.199C154.426 38.5925 154.592 38.6404 154.698 38.7363C154.804 38.8321 154.857 38.9835 154.857 39.1903V39.4198C154.857 39.7174 154.776 39.9797 154.617 40.2093C154.456 40.4388 154.231 40.6153 153.941 40.7415C153.651 40.8676 153.318 40.9331 152.943 40.9331L152.937 40.918Z" fill="#5CC2AA"/>
<path d="M164.63 40.918C164.247 40.918 163.889 40.855 163.551 40.7263C163.215 40.6002 162.923 40.4161 162.678 40.179C162.62 40.121 162.59 40.0529 162.59 39.9797C162.59 39.894 162.628 39.8108 162.706 39.7326C162.769 39.6695 162.837 39.6392 162.91 39.6392C162.988 39.6392 163.082 39.6846 163.193 39.7729C163.377 39.9419 163.594 40.0705 163.846 40.1639C164.098 40.2547 164.358 40.3026 164.628 40.3026C164.898 40.3026 165.087 40.2597 165.231 40.1714C165.374 40.0832 165.448 39.9596 165.448 39.7981C165.448 39.6292 165.369 39.4955 165.213 39.3921C165.057 39.2887 164.792 39.1953 164.416 39.1146C163.826 38.986 163.397 38.8145 163.13 38.6051C162.862 38.3933 162.729 38.1234 162.729 37.7905C162.729 37.5786 162.799 37.3919 162.941 37.2255C163.082 37.059 163.279 36.9304 163.531 36.8396C163.783 36.7488 164.071 36.7009 164.396 36.7009C164.759 36.7009 165.082 36.7614 165.364 36.8799C165.647 36.9985 165.864 37.1649 166.013 37.3819C166.063 37.4651 166.088 37.5332 166.088 37.5937C166.083 37.6921 166.035 37.7753 165.942 37.8459C165.892 37.8813 165.834 37.8989 165.765 37.8989C165.644 37.8989 165.543 37.851 165.468 37.7577C165.354 37.6215 165.203 37.513 165.014 37.4348C164.825 37.3566 164.618 37.3188 164.396 37.3188C164.118 37.3188 163.902 37.3617 163.748 37.4449C163.594 37.5281 163.516 37.6442 163.516 37.793C163.516 37.9418 163.591 38.0629 163.743 38.1587C163.894 38.2545 164.154 38.3453 164.525 38.4311C164.936 38.5295 165.266 38.6379 165.516 38.7615C165.765 38.8851 165.95 39.0289 166.063 39.1979C166.179 39.3668 166.235 39.5661 166.235 39.8007C166.235 40.0352 166.169 40.2194 166.035 40.3909C165.902 40.5599 165.715 40.691 165.473 40.7843C165.231 40.8751 164.948 40.9231 164.628 40.9231L164.63 40.918Z" fill="#5CC2AA"/>
<path d="M170.585 40.86C170.288 40.86 170.058 40.7818 169.894 40.6254C169.73 40.4691 169.65 40.2496 169.65 39.9697V37.6265C169.65 37.3541 169.728 37.1397 169.887 36.9884C170.046 36.8371 170.265 36.7589 170.545 36.7589H172.369C172.485 36.7589 172.575 36.7841 172.638 36.8371C172.702 36.89 172.732 36.9657 172.732 37.0615C172.732 37.1574 172.699 37.228 172.636 37.281C172.57 37.3339 172.482 37.3592 172.369 37.3592H170.681C170.603 37.3592 170.543 37.3844 170.497 37.4348C170.452 37.4853 170.429 37.5559 170.429 37.6467V38.4614H171.925C172.041 38.4614 172.132 38.4866 172.195 38.5396C172.258 38.5925 172.288 38.6682 172.288 38.764C172.288 38.8599 172.255 38.9305 172.192 38.9835C172.126 39.0364 172.038 39.0617 171.925 39.0617H170.429V39.9646C170.429 40.0554 170.452 40.126 170.497 40.1765C170.543 40.2269 170.603 40.2521 170.681 40.2521H172.497C172.616 40.2521 172.704 40.2774 172.767 40.3303C172.83 40.3833 172.86 40.459 172.86 40.5548C172.86 40.6507 172.828 40.7213 172.765 40.7742C172.699 40.8272 172.611 40.8524 172.497 40.8524H170.585V40.86Z" fill="#5CC2AA"/>
<path d="M178.185 38.8624C178.442 38.8624 178.644 38.8372 178.788 38.7867C178.932 38.7363 179.035 38.6581 179.095 38.5496C179.156 38.4412 179.186 38.2974 179.186 38.1133C179.186 37.8485 179.106 37.6568 178.944 37.5382C178.783 37.4197 178.528 37.3617 178.185 37.3617H177.3C177.221 37.3617 177.161 37.3869 177.116 37.4373C177.07 37.4878 177.047 37.5584 177.047 37.6492V38.8624H178.185ZM176.268 37.6265C176.268 37.3541 176.346 37.1397 176.505 36.9884C176.664 36.8371 176.883 36.7589 177.163 36.7589H178.208C178.79 36.7589 179.229 36.8724 179.527 37.0994C179.824 37.3264 179.973 37.6643 179.973 38.1133C179.973 38.532 179.85 38.8574 179.6 39.0919C179.353 39.3265 179.02 39.4425 178.601 39.4425L179.491 40.3278C179.562 40.3984 179.597 40.4791 179.597 40.5674C179.597 40.6557 179.557 40.744 179.474 40.8146C179.388 40.8802 179.305 40.913 179.222 40.913C179.108 40.913 179.005 40.8625 178.911 40.7616L177.645 39.4652H177.047V40.5674C177.047 40.6759 177.01 40.7616 176.936 40.8247C176.863 40.8877 176.767 40.918 176.656 40.918C176.546 40.918 176.445 40.8877 176.377 40.8247C176.306 40.7616 176.271 40.6759 176.271 40.5674V37.6265H176.268Z" fill="#5CC2AA"/>
<path d="M185.318 40.918C185.045 40.918 184.818 40.8222 184.637 40.633C184.458 40.4438 184.299 40.1311 184.163 39.6922L183.348 37.1019C183.333 37.054 183.325 37.006 183.325 36.9556C183.325 36.7841 183.446 36.6983 183.688 36.6983C183.809 36.6983 183.903 36.721 183.966 36.769C184.031 36.8169 184.079 36.8925 184.11 36.9985L184.919 39.6367C184.992 39.8738 185.063 40.0478 185.124 40.1513C185.187 40.2572 185.25 40.3102 185.318 40.3102C185.386 40.3102 185.449 40.2572 185.512 40.1513C185.575 40.0453 185.643 39.8738 185.716 39.6367L186.526 36.9985C186.556 36.8925 186.604 36.8169 186.67 36.769C186.735 36.721 186.826 36.6983 186.947 36.6983C187.189 36.6983 187.31 36.7841 187.31 36.9556C187.31 37.006 187.303 37.0565 187.288 37.1019L186.473 39.6922C186.337 40.1286 186.178 40.4438 185.999 40.633C185.82 40.8222 185.593 40.918 185.318 40.918Z" fill="#5CC2AA"/>
<path d="M191.285 40.918C191.169 40.918 191.074 40.8877 191.003 40.8247C190.932 40.7616 190.897 40.6759 190.897 40.5674V37.0514C190.897 36.943 190.932 36.8572 191.003 36.7942C191.074 36.7311 191.167 36.7009 191.285 36.7009C191.404 36.7009 191.492 36.7311 191.568 36.7942C191.641 36.8572 191.679 36.943 191.679 37.0514V40.5674C191.679 40.6759 191.641 40.7616 191.568 40.8247C191.495 40.8877 191.399 40.918 191.285 40.918Z" fill="#5CC2AA"/>
<path d="M197.414 40.918C196.973 40.918 196.59 40.8348 196.267 40.6658C195.941 40.4968 195.694 40.2547 195.523 39.9394C195.351 39.6241 195.265 39.2483 195.265 38.8145C195.265 38.3807 195.351 38.0048 195.523 37.687C195.694 37.3692 195.941 37.1246 196.264 36.9556C196.587 36.7866 196.965 36.7009 197.404 36.7009C197.767 36.7009 198.103 36.7639 198.413 36.8875C198.723 37.0111 198.95 37.1776 199.099 37.3869C199.147 37.45 199.17 37.513 199.17 37.5811C199.17 37.6795 199.117 37.7678 199.011 37.8459C198.963 37.8813 198.905 37.8989 198.834 37.8989C198.776 37.8989 198.716 37.8863 198.658 37.8611C198.6 37.8359 198.549 37.8005 198.511 37.7526C198.378 37.6013 198.224 37.4903 198.047 37.4222C197.871 37.3541 197.656 37.3188 197.402 37.3188C196.975 37.3188 196.643 37.45 196.405 37.7148C196.166 37.9796 196.047 38.3479 196.047 38.8195C196.047 39.2912 196.168 39.6544 196.408 39.9167C196.648 40.179 196.983 40.3102 197.414 40.3102C197.906 40.3102 198.3 40.1664 198.592 39.8763C198.713 39.7628 198.824 39.7073 198.928 39.7073C198.998 39.7073 199.061 39.73 199.122 39.778C199.213 39.8562 199.256 39.9419 199.256 40.0352C199.256 40.1059 199.23 40.174 199.18 40.2395C199.011 40.4539 198.774 40.6229 198.461 40.744C198.151 40.865 197.803 40.9256 197.414 40.9256V40.918Z" fill="#5CC2AA"/>
<path d="M203.604 40.86C203.306 40.86 203.077 40.7818 202.913 40.6254C202.749 40.4691 202.666 40.2496 202.666 39.9697V37.6265C202.666 37.3541 202.744 37.1397 202.903 36.9884C203.062 36.8371 203.281 36.7589 203.561 36.7589H205.385C205.503 36.7589 205.591 36.7841 205.654 36.8371C205.718 36.89 205.748 36.9657 205.748 37.0615C205.748 37.1574 205.715 37.228 205.652 37.281C205.586 37.3339 205.498 37.3592 205.385 37.3592H203.697C203.619 37.3592 203.559 37.3844 203.513 37.4348C203.468 37.4853 203.445 37.5559 203.445 37.6467V38.4614H204.938C205.057 38.4614 205.145 38.4866 205.208 38.5396C205.271 38.5925 205.301 38.6682 205.301 38.764C205.301 38.8599 205.269 38.9305 205.206 38.9835C205.14 39.0364 205.052 39.0617 204.938 39.0617H203.445V39.9646C203.445 40.0554 203.468 40.126 203.513 40.1765C203.559 40.2269 203.619 40.2521 203.697 40.2521H205.513C205.629 40.2521 205.72 40.2774 205.783 40.3303C205.846 40.3833 205.876 40.459 205.876 40.5548C205.876 40.6507 205.844 40.7213 205.781 40.7742C205.715 40.8272 205.627 40.8524 205.513 40.8524H203.601L203.604 40.86Z" fill="#5CC2AA"/>
<path d="M211.269 40.918C210.886 40.918 210.527 40.855 210.189 40.7263C209.854 40.6002 209.561 40.4161 209.317 40.179C209.259 40.121 209.228 40.0529 209.228 39.9797C209.228 39.894 209.266 39.8108 209.344 39.7326C209.407 39.6695 209.476 39.6392 209.549 39.6392C209.627 39.6392 209.72 39.6846 209.831 39.7729C210.015 39.9419 210.232 40.0705 210.484 40.1639C210.737 40.2547 210.996 40.3026 211.266 40.3026C211.536 40.3026 211.725 40.2597 211.869 40.1714C212.013 40.0832 212.086 39.9596 212.086 39.7981C212.086 39.6292 212.008 39.4955 211.852 39.3921C211.695 39.2887 211.43 39.1953 211.054 39.1146C210.464 38.986 210.036 38.8145 209.768 38.6051C209.501 38.3933 209.367 38.1234 209.367 37.7905C209.367 37.5786 209.438 37.3919 209.579 37.2255C209.72 37.059 209.917 36.9304 210.169 36.8396C210.421 36.7488 210.709 36.7009 211.034 36.7009C211.398 36.7009 211.72 36.7614 212.005 36.8799C212.288 36.9985 212.505 37.1649 212.654 37.3819C212.704 37.4651 212.729 37.5332 212.729 37.5937C212.724 37.6921 212.676 37.7753 212.583 37.8459C212.533 37.8813 212.475 37.8989 212.406 37.8989C212.285 37.8989 212.184 37.851 212.109 37.7577C211.995 37.6215 211.844 37.513 211.655 37.4348C211.466 37.3566 211.259 37.3188 211.037 37.3188C210.759 37.3188 210.542 37.3617 210.389 37.4449C210.235 37.5281 210.157 37.6442 210.157 37.793C210.157 37.9418 210.232 38.0629 210.381 38.1587C210.532 38.2545 210.792 38.3453 211.163 38.4311C211.574 38.5295 211.904 38.6379 212.154 38.7615C212.404 38.8851 212.588 39.0289 212.701 39.1979C212.818 39.3668 212.873 39.5661 212.873 39.8007C212.873 40.0352 212.807 40.2194 212.674 40.3909C212.54 40.5599 212.353 40.691 212.111 40.7843C211.869 40.8751 211.587 40.9231 211.266 40.9231L211.269 40.918Z" fill="#5CC2AA"/>
<path fill-rule="evenodd" clip-rule="evenodd" d="M57.0753 16.112C57.6126 16.112 58.0514 16.5483 58.0514 17.0881C58.0514 17.6278 57.6151 18.0642 57.0753 18.0642C56.5356 18.0642 56.0992 17.6278 56.0992 17.0881C56.0992 16.5483 56.5356 16.112 57.0753 16.112ZM42.5297 14.8408C43.6773 14.8408 44.608 15.7715 44.608 16.9191C44.608 18.0667 43.6773 18.9974 42.5297 18.9974C41.3821 18.9974 40.4514 18.0667 40.4514 16.9191C40.4514 15.7715 41.3821 14.8408 42.5297 14.8408ZM56.1018 14.9467C57.8547 14.9467 59.2772 16.3692 59.2772 18.1222C59.2772 19.8751 57.8547 21.2976 56.1018 21.2976C54.3488 21.2976 52.9263 19.8751 52.9263 18.1222C52.9263 16.3692 54.3488 14.9467 56.1018 14.9467ZM53.9024 24.1629C54.6288 24.1629 55.219 24.7531 55.219 25.4795C55.219 26.2059 54.6288 26.7961 53.9024 26.7961C53.176 26.7961 52.5858 26.2059 52.5858 25.4795C52.5858 24.7531 53.176 24.1629 53.9024 24.1629ZM31.8834 18.7325C32.6527 15.0072 35.9542 12.2025 39.9091 12.2025C44.4314 12.2025 48.1038 15.8749 48.1038 20.3972C48.1038 24.9196 44.4314 28.5919 39.9091 28.5919C37.5634 28.5919 35.4473 27.6032 33.9516 26.0218C33.432 24.97 33.089 23.8173 32.9629 22.5991C33.823 22.2662 34.7411 22.0467 35.697 21.9635C36.2115 21.9232 36.6075 21.4944 36.6075 20.9773V19.7238C36.6075 19.179 36.1661 18.7351 35.6188 18.7351H31.8809L31.8834 18.7325ZM52.2503 21.9711C54.9138 21.9711 57.0753 24.1326 57.0753 26.7961C57.0753 29.4596 54.9138 31.6211 52.2503 31.6211C49.5869 31.6211 47.4253 29.4596 47.4253 26.7961C47.4253 24.1326 49.5869 21.9711 52.2503 21.9711Z" fill="#4E70A9"/>
<path d="M31.8834 18.7351H25.8175L25.8124 18.7426C22.304 18.8662 19.2471 20.7831 17.532 23.6004C17.3479 23.9056 17.3428 24.2865 17.5194 24.5967C17.6959 24.9069 18.0238 25.0986 18.3794 25.0986H20.0996C20.3619 25.0986 20.6141 25.202 20.7983 25.3887C20.9824 25.5728 21.0883 25.825 21.0883 26.0873V30.5668H20.6394C18.8461 30.5668 17.3907 32.0196 17.3907 33.8154V34.7436C17.3907 36.088 16.5206 37.2785 15.2368 37.6845C13.9555 38.0906 12.5582 37.6164 11.7838 36.5167C9.94009 33.5103 8.78491 29.9968 8.78491 26.216C8.78491 16.1649 16.9468 8.00301 26.9979 8.00301C31.4673 8.00301 35.5633 9.61724 38.7363 12.2933C35.3162 12.7826 32.5745 15.3906 31.8834 18.7401V18.7351ZM45.2083 26.6448C45.0545 33.2353 41.3922 38.9633 36.0199 42.0354C35.0766 42.5827 33.9113 42.5852 32.9629 42.0404C32.0171 41.4956 31.4345 40.4867 31.4345 39.3946C31.4042 36.7084 31.4042 33.8129 31.4042 33.8129C31.4042 32.0196 29.9514 30.5643 28.1556 30.5643H26.6271C26.9802 28.0875 28.2338 25.9007 30.0472 24.347C30.64 26.4051 31.8683 28.1934 33.5077 29.4873C33.8886 29.7824 34.4258 29.7597 34.7815 29.4343C34.8622 29.3612 34.9454 29.283 35.0261 29.2048C35.4095 28.8542 35.4549 28.264 35.127 27.8579C34.6402 27.2501 33.9315 25.9713 33.9542 26.0193C35.4473 27.6007 37.566 28.5894 39.9117 28.5894C41.932 28.5894 43.7833 27.8554 45.2108 26.6422L45.2083 26.6448Z" fill="#5CC2AA"/>
<path d="M89.1656 32.2416C90.4241 32.2416 91.4179 31.9137 92.1468 31.2604C92.8757 30.6072 93.239 29.6992 93.239 28.5364C93.239 27.3737 92.8757 26.4682 92.1468 25.8124C91.4179 25.1592 90.4241 24.8313 89.1656 24.8313C87.907 24.8313 86.9107 25.1592 86.1843 25.8124C85.4554 26.4657 85.0922 27.3737 85.0922 28.5364C85.0922 29.6992 85.4554 30.6046 86.1843 31.2604C86.9132 31.9137 87.907 32.2416 89.1656 32.2416ZM89.1656 34.7941C87.743 34.7941 86.4794 34.5368 85.3747 34.0223C84.2699 33.5077 83.4073 32.7738 82.7869 31.8254C82.1664 30.877 81.8536 29.7799 81.8536 28.5364C81.8536 27.293 82.1639 26.1958 82.7869 25.2474C83.4073 24.2991 84.2724 23.5676 85.3747 23.0506C86.4794 22.5361 87.743 22.2763 89.1656 22.2763C90.5881 22.2763 91.8517 22.5335 92.9565 23.0506C94.0612 23.5651 94.9238 24.2966 95.5443 25.2474C96.1647 26.1958 96.4775 27.293 96.4775 28.5364C96.4775 29.7799 96.1672 30.877 95.5443 31.8254C94.9238 32.7738 94.0587 33.5052 92.9565 34.0223C91.8517 34.5368 90.5881 34.7941 89.1656 34.7941ZM103.716 34.7941C102.031 34.7941 100.717 34.3073 99.7766 33.3337C98.8358 32.3601 98.3666 31.0057 98.3666 29.2729V23.7518C98.3666 23.2927 98.5129 22.9346 98.808 22.6723C99.1031 22.4099 99.4941 22.2788 99.9859 22.2788C100.478 22.2788 100.886 22.4099 101.164 22.6723C101.441 22.9346 101.58 23.2927 101.58 23.7518V29.2729C101.58 30.2061 101.83 30.9325 102.329 31.4572C102.828 31.9818 103.527 32.2416 104.428 32.2416C105.59 32.2416 106.493 31.8733 107.139 31.1368C107.785 30.4003 108.107 29.3864 108.107 28.095V23.7518C108.107 23.2927 108.254 22.9346 108.549 22.6723C108.844 22.4099 109.235 22.2788 109.727 22.2788C110.219 22.2788 110.627 22.4099 110.905 22.6723C111.182 22.9346 111.321 23.2927 111.321 23.7518V33.3211C111.321 33.7953 111.187 34.1585 110.915 34.4132C110.645 34.6679 110.264 34.7941 109.775 34.7941C109.285 34.7941 108.899 34.6629 108.622 34.4006C108.345 34.1383 108.206 33.7801 108.206 33.3211V32.6098C107.6 33.3614 106.935 33.9138 106.206 34.2669C105.477 34.6175 104.647 34.7941 103.714 34.7941H103.716ZM120.378 25.0759C119.281 25.0759 118.411 25.424 117.765 26.1201C117.119 26.8163 116.797 27.7671 116.797 28.9778V33.3211C116.797 33.7801 116.65 34.1383 116.355 34.4006C116.06 34.6629 115.669 34.7941 115.177 34.7941C114.685 34.7941 114.277 34.6629 113.999 34.4006C113.722 34.1383 113.583 33.7801 113.583 33.3211V23.7518C113.583 23.2776 113.719 22.9144 113.989 22.6596C114.259 22.4074 114.64 22.2788 115.129 22.2788C115.619 22.2788 116.005 22.4099 116.282 22.6723C116.559 22.9346 116.698 23.2927 116.698 23.7518V24.5614C117.205 23.9081 117.798 23.4037 118.476 23.0531C119.155 22.7025 119.886 22.526 120.673 22.526H121.213C121.738 22.526 122.141 22.6369 122.429 22.8564C122.716 23.0783 122.857 23.3911 122.857 23.8022C122.857 24.2133 122.714 24.5261 122.429 24.748C122.141 24.97 121.738 25.0785 121.213 25.0785H120.378V25.0759ZM79.8157 17.1259C80.3075 17.1259 80.6985 17.257 80.9936 17.5194C81.2887 17.7817 81.4349 18.1398 81.4349 18.5989V21.1766C81.4349 23.3533 80.8876 25.1239 79.7905 26.4884C78.6933 27.8554 77.1648 28.6852 75.2025 28.9803V33.3236C75.2025 33.765 75.0512 34.1206 74.7485 34.3905C74.4459 34.6604 74.0499 34.7966 73.5581 34.7966C73.0662 34.7966 72.6753 34.6654 72.3802 34.4031C72.0851 34.1408 71.9388 33.7826 71.9388 33.3236V28.9803C69.9588 28.6852 68.4203 27.8605 67.3256 26.501C66.2285 25.144 65.6812 23.3684 65.6812 21.1766V18.5989C65.6812 18.1398 65.8274 17.7817 66.1225 17.5194C66.4176 17.257 66.8086 17.1259 67.3004 17.1259C67.7922 17.1259 68.1882 17.2596 68.4909 17.5294C68.7936 17.7993 68.9449 18.155 68.9449 18.5963V21.2472C68.9449 22.9497 69.3409 24.2537 70.1354 25.1617C70.9299 26.0697 72.0699 26.5237 73.5581 26.5237C75.0462 26.5237 76.1887 26.0697 76.9807 25.1617C77.7752 24.2537 78.1712 22.9497 78.1712 21.2472V18.5963C78.1712 18.155 78.3225 17.7993 78.6252 17.5294C78.9279 17.2596 79.3239 17.1259 79.8157 17.1259Z" fill="#5CC2AA"/>
</svg>
