<svg width="299" height="150" viewBox="0 0 299 150" fill="none" xmlns="http://www.w3.org/2000/svg">
<path d="M44.2777 88.14C45.1106 88.14 45.7727 88.3629 46.2724 88.8086C46.7722 89.2543 47.0199 89.8629 47.0199 90.6429V95.0229C47.0199 98.7215 46.093 101.73 44.2349 104.049C42.3769 106.371 39.7884 107.781 36.4652 108.279V115.659C36.4652 116.409 36.2089 117.013 35.6964 117.471C35.1838 117.93 34.5132 118.161 33.6802 118.161C32.8473 118.161 32.1852 117.939 31.6855 117.493C31.1857 117.047 30.938 116.439 30.938 115.659V108.279C27.5849 107.777 24.9793 106.376 23.1255 104.066C21.2675 101.76 20.3406 98.7429 20.3406 95.0186V90.6386C20.3406 89.8586 20.5883 89.25 21.0881 88.8043C21.5878 88.3586 22.2499 88.1357 23.0828 88.1357C23.9158 88.1357 24.5864 88.3672 25.0989 88.8215C25.6115 89.28 25.8678 89.8843 25.8678 90.6343V95.1386C25.8678 98.0272 26.5384 100.247 27.8839 101.79C29.2294 103.333 31.1601 104.104 33.6802 104.104C36.2004 104.104 38.1353 103.333 39.4766 101.79C40.8221 100.247 41.4927 98.0315 41.4927 95.1386V90.6343C41.4927 89.8843 41.749 89.28 42.2615 88.8215C42.7741 88.3629 43.4447 88.1357 44.2777 88.1357V88.14Z" fill="white"/>
<path d="M60.1118 113.824C62.2432 113.824 63.9261 113.267 65.1606 112.157C66.395 111.047 67.0101 109.504 67.0101 107.529C67.0101 105.553 66.395 104.01 65.1606 102.9C63.9261 101.79 62.2432 101.233 60.1118 101.233C57.9803 101.233 56.2974 101.79 55.0629 102.9C53.8285 104.01 53.2134 105.553 53.2134 107.529C53.2134 109.504 53.8285 111.043 55.0629 112.157C56.2974 113.267 57.9803 113.824 60.1118 113.824ZM60.1118 118.161C57.7027 118.161 55.5627 117.724 53.6918 116.85C51.8209 115.976 50.3601 114.729 49.3093 113.117C48.2585 111.506 47.7289 109.641 47.7289 107.529C47.7289 105.416 48.2543 103.551 49.3093 101.94C50.3644 100.329 51.8252 99.0858 53.6918 98.2072C55.5584 97.3286 57.7027 96.8958 60.1118 96.8958C62.5208 96.8958 64.6608 97.3329 66.5317 98.2072C68.4026 99.0815 69.8634 100.324 70.9142 101.94C71.965 103.551 72.4946 105.416 72.4946 107.529C72.4946 109.641 71.9692 111.506 70.9142 113.117C69.8634 114.729 68.3983 115.971 66.5317 116.85C64.6608 117.724 62.5208 118.161 60.1118 118.161Z" fill="white"/>
<path d="M84.7537 118.161C81.9004 118.161 79.6792 117.334 78.0817 115.68C76.4885 114.026 75.694 111.724 75.694 108.78V99.3986C75.694 98.6186 75.9417 98.01 76.4415 97.5643C76.9412 97.1186 77.6033 96.8958 78.4362 96.8958C79.2692 96.8958 79.9611 97.1186 80.431 97.5643C80.9008 98.01 81.1358 98.6186 81.1358 99.3986V108.78C81.1358 110.366 81.5586 111.6 82.4044 112.491C83.2501 113.383 84.4333 113.824 85.9582 113.824C87.9231 113.824 89.4565 113.199 90.55 111.947C91.6435 110.696 92.1902 108.973 92.1902 106.779V99.3986C92.1902 98.6186 92.438 98.01 92.9377 97.5643C93.4375 97.1186 94.0996 96.8958 94.9325 96.8958C95.7654 96.8958 96.4574 97.1186 96.9272 97.5643C97.3971 98.01 97.632 98.6186 97.632 99.3986V115.659C97.632 116.464 97.4056 117.081 96.9443 117.514C96.4873 117.947 95.8423 118.161 95.0136 118.161C94.185 118.161 93.5315 117.939 93.0616 117.493C92.5917 117.047 92.3568 116.439 92.3568 115.659V114.45C91.3317 115.727 90.204 116.666 88.9696 117.266C87.7351 117.861 86.3298 118.161 84.7494 118.161H84.7537Z" fill="white"/>
<path d="M104.159 118.161C103.3 118.161 102.634 117.939 102.164 117.493C101.694 117.047 101.459 116.439 101.459 115.659V99.3986C101.459 98.5929 101.69 97.9758 102.147 97.5429C102.604 97.1143 103.249 96.8958 104.078 96.8958C104.906 96.8958 105.56 97.1186 106.03 97.5643C106.5 98.01 106.734 98.6186 106.734 99.3986V100.774C107.593 99.6643 108.597 98.8072 109.746 98.2115C110.895 97.6158 112.134 97.3158 113.466 97.3158H114.38C115.269 97.3158 115.952 97.5043 116.439 97.8772C116.922 98.2543 117.165 98.7858 117.165 99.4843C117.165 100.183 116.922 100.714 116.439 101.091C115.952 101.469 115.269 101.653 114.38 101.653H112.966C111.108 101.653 109.635 102.244 108.541 103.427C107.448 104.61 106.901 106.226 106.901 108.283V115.663C106.901 116.443 106.653 117.051 106.154 117.497C105.654 117.943 104.992 118.166 104.159 118.166V118.161Z" fill="white"/>
<path d="M134.999 118.161C131.868 118.161 129.151 117.566 126.853 116.37C124.555 115.174 122.795 113.451 121.573 111.201C120.356 108.951 119.745 106.281 119.745 103.196C119.745 100.11 120.356 97.4357 121.573 95.1686C122.791 92.9014 124.546 91.1657 126.832 89.9571C129.117 88.7486 131.812 88.1443 134.913 88.1443C137.489 88.1443 139.872 88.59 142.059 89.4771C144.246 90.3686 145.869 91.5471 146.92 93.0214C147.253 93.4671 147.42 93.9257 147.42 94.3971C147.42 95.0914 147.044 95.7171 146.296 96.2743C145.963 96.5229 145.549 96.6514 145.049 96.6514C144.635 96.6514 144.216 96.5614 143.802 96.3814C143.388 96.2014 143.042 95.9443 142.764 95.61C141.82 94.5257 140.726 93.7414 139.479 93.2529C138.232 92.7686 136.707 92.5243 134.909 92.5243C131.889 92.5243 129.535 93.4629 127.844 95.34C126.152 97.2171 125.311 99.8357 125.311 103.2C125.311 106.564 126.161 109.136 127.865 110.996C129.57 112.86 131.944 113.79 134.994 113.79C138.484 113.79 141.269 112.761 143.349 110.704C144.208 109.899 144.998 109.496 145.72 109.496C146.22 109.496 146.677 109.663 147.091 109.997C147.727 110.554 148.048 111.163 148.048 111.831C148.048 112.333 147.868 112.817 147.505 113.293C146.314 114.823 144.618 116.019 142.414 116.88C140.21 117.741 137.741 118.174 134.994 118.174L134.999 118.161Z" fill="white"/>
<path d="M155.403 118.161C154.545 118.161 153.878 117.939 153.408 117.493C152.939 117.047 152.704 116.439 152.704 115.659V88.5986C152.704 87.8186 152.939 87.21 153.408 86.7643C153.878 86.3186 154.545 86.0957 155.403 86.0957C156.262 86.0957 156.898 86.3186 157.398 86.7643C157.898 87.21 158.145 87.8186 158.145 88.5986V115.659C158.145 116.439 157.898 117.047 157.398 117.493C156.898 117.939 156.236 118.161 155.403 118.161Z" fill="white"/>
<path d="M178.507 105.403C178.977 105.403 179.31 105.313 179.503 105.133C179.695 104.953 179.793 104.653 179.793 104.237C179.793 103.264 179.246 102.501 178.153 101.944C177.059 101.387 175.581 101.109 173.728 101.109C171.874 101.109 170.409 101.499 169.345 102.274C168.277 103.054 167.743 104.096 167.743 105.403H178.507ZM174.146 118.161C171.763 118.161 169.687 117.729 167.914 116.867C166.142 116.006 164.775 114.789 163.822 113.22C162.865 111.651 162.387 109.809 162.387 107.696C162.387 104.276 163.378 101.623 165.36 99.7329C167.342 97.8429 170.131 96.8958 173.732 96.8958C175.949 96.8958 177.909 97.2429 179.614 97.9372C181.318 98.6315 182.646 99.6 183.603 100.834C184.56 102.073 185.038 103.483 185.038 105.069C185.038 106.401 184.615 107.43 183.77 108.154C182.924 108.879 181.728 109.239 180.173 109.239H167.662C167.662 110.794 168.209 111.969 169.302 112.761C170.396 113.554 172.01 113.949 174.142 113.949C176.384 113.949 178.298 113.447 179.878 112.449C180.767 111.891 181.459 111.613 181.954 111.613C182.424 111.613 182.881 111.836 183.326 112.281C183.795 112.753 184.03 113.267 184.03 113.824C184.03 114.493 183.753 115.02 183.197 115.41C182.036 116.301 180.677 116.979 179.127 117.454C177.576 117.926 175.915 118.161 174.142 118.161H174.146Z" fill="white"/>
<path d="M196.998 114.326C198.745 114.326 200.108 114.056 201.09 113.511C202.073 112.971 202.564 112.213 202.564 111.24C202.564 110.323 202.064 109.586 201.069 109.029C200.074 108.471 198.741 108.193 197.079 108.193C195.584 108.193 194.427 108.459 193.611 108.986C192.795 109.513 192.385 110.263 192.385 111.236C192.385 112.209 192.787 112.967 193.59 113.507C194.393 114.047 195.529 114.321 196.998 114.321V114.326ZM195.708 118.161C193.991 118.161 192.475 117.87 191.159 117.287C189.844 116.704 188.819 115.89 188.084 114.849C187.349 113.807 186.982 112.603 186.982 111.24C186.982 109.183 187.832 107.541 189.536 106.32C191.24 105.099 193.547 104.486 196.456 104.486C198.976 104.486 201.001 105.026 202.526 106.11V105.111C202.526 103.804 202.124 102.806 201.321 102.107C200.518 101.413 199.356 101.066 197.831 101.066C195.559 101.066 193.607 101.554 191.971 102.523C191.279 102.913 190.681 103.106 190.185 103.106C189.575 103.106 189.036 102.827 188.567 102.274C188.263 101.884 188.109 101.481 188.109 101.066C188.109 100.371 188.468 99.7586 189.19 99.2315C190.185 98.5072 191.45 97.9372 192.97 97.5215C194.495 97.1058 196.101 96.8958 197.793 96.8958C201.005 96.8958 203.534 97.6243 205.379 99.0858C207.22 100.547 208.142 102.553 208.142 105.111V115.826C208.142 116.55 207.899 117.12 207.416 117.536C206.929 117.951 206.272 118.161 205.443 118.161C204.614 118.161 203.918 117.969 203.448 117.579C202.978 117.189 202.743 116.631 202.743 115.911V115.453C201.163 117.261 198.822 118.161 195.721 118.161H195.708Z" fill="white"/>
<path d="M214.456 118.161C213.597 118.161 212.931 117.939 212.461 117.493C211.991 117.047 211.756 116.439 211.756 115.659V99.3986C211.756 98.5929 211.987 97.9758 212.44 97.5429C212.897 97.1143 213.542 96.8958 214.374 96.8958C215.207 96.8958 215.857 97.1186 216.327 97.5643C216.796 98.01 217.031 98.6186 217.031 99.3986V100.607C219 98.1343 221.687 96.8958 225.096 96.8958C227.757 96.8958 229.854 97.7358 231.392 99.42C232.93 101.1 233.698 103.389 233.698 106.281V115.663C233.698 116.443 233.451 117.051 232.951 117.497C232.451 117.943 231.789 118.166 230.956 118.166C230.123 118.166 229.431 117.943 228.961 117.497C228.492 117.051 228.257 116.443 228.257 115.663V106.281C228.257 104.696 227.868 103.461 227.095 102.57C226.317 101.679 225.237 101.237 223.853 101.237C221.747 101.237 220.111 101.854 218.949 103.093C217.787 104.331 217.202 106.059 217.202 108.283V115.663C217.202 116.443 216.954 117.051 216.455 117.497C215.955 117.943 215.293 118.166 214.46 118.166L214.456 118.161Z" fill="white"/>
<path d="M89.6616 128.571C88.9141 128.571 88.2648 128.43 87.7181 128.143C87.1671 127.856 86.7485 127.444 86.458 126.909C86.1676 126.373 86.0223 125.734 86.0223 124.997C86.0223 124.26 86.1676 123.621 86.458 123.081C86.7485 122.541 87.1671 122.126 87.7138 121.839C88.2606 121.551 88.9013 121.406 89.6445 121.406C90.2596 121.406 90.8277 121.513 91.3531 121.723C91.8742 121.937 92.2629 122.216 92.5149 122.571C92.5918 122.679 92.6345 122.786 92.6345 122.901C92.6345 123.069 92.5448 123.219 92.3654 123.351C92.2843 123.411 92.186 123.441 92.0664 123.441C91.9682 123.441 91.8699 123.42 91.7674 123.377C91.6692 123.334 91.5837 123.274 91.5197 123.193C91.2933 122.936 91.0327 122.747 90.7337 122.631C90.4347 122.516 90.0717 122.456 89.6402 122.456C88.9184 122.456 88.3588 122.679 87.953 123.129C87.5515 123.579 87.3465 124.204 87.3465 125.006C87.3465 125.807 87.5515 126.424 87.9573 126.87C88.3631 127.316 88.9312 127.539 89.6616 127.539C90.4945 127.539 91.1609 127.294 91.6564 126.801C91.8614 126.609 92.0493 126.514 92.2202 126.514C92.3398 126.514 92.4466 126.553 92.5491 126.634C92.7029 126.767 92.7797 126.913 92.7797 127.071C92.7797 127.191 92.737 127.307 92.6516 127.419C92.3654 127.783 91.9639 128.07 91.4342 128.276C90.9089 128.481 90.3194 128.584 89.6616 128.584V128.571Z" fill="white"/>
<path d="M100.144 128.473C99.6396 128.473 99.2509 128.34 98.9733 128.074C98.6956 127.809 98.5547 127.436 98.5547 126.96V122.001C98.5547 121.817 98.6145 121.671 98.7341 121.564C98.8537 121.457 99.0117 121.406 99.2125 121.406C99.4132 121.406 99.5713 121.461 99.6952 121.569C99.819 121.676 99.8788 121.821 99.8788 122.001V126.96C99.8788 127.114 99.9173 127.234 99.9942 127.32C100.071 127.406 100.174 127.449 100.306 127.449H103.484C103.68 127.449 103.834 127.491 103.941 127.581C104.048 127.671 104.099 127.8 104.099 127.963C104.099 128.126 104.043 128.246 103.937 128.336C103.826 128.426 103.676 128.469 103.484 128.469H100.148L100.144 128.473Z" fill="white"/>
<path d="M111.262 128.473C110.758 128.473 110.369 128.34 110.092 128.074C109.814 127.809 109.673 127.436 109.673 126.96V122.979C109.673 122.516 109.806 122.152 110.075 121.894C110.344 121.637 110.715 121.504 111.19 121.504H114.278C114.474 121.504 114.628 121.547 114.735 121.637C114.842 121.727 114.893 121.856 114.893 122.019C114.893 122.182 114.837 122.302 114.731 122.392C114.62 122.482 114.47 122.524 114.278 122.524H111.42C111.288 122.524 111.185 122.567 111.108 122.653C111.032 122.739 110.993 122.859 110.993 123.013V124.397H113.526C113.723 124.397 113.876 124.44 113.983 124.53C114.09 124.62 114.141 124.749 114.141 124.912C114.141 125.074 114.086 125.194 113.979 125.284C113.868 125.374 113.718 125.417 113.526 125.417H110.993V126.952C110.993 127.106 111.032 127.226 111.108 127.312C111.185 127.397 111.288 127.44 111.42 127.44H114.496C114.692 127.44 114.846 127.483 114.953 127.573C115.059 127.663 115.111 127.792 115.111 127.954C115.111 128.117 115.055 128.237 114.948 128.327C114.837 128.417 114.688 128.46 114.496 128.46H111.258L111.262 128.473Z" fill="white"/>
<path d="M125.751 125.314V124.449C125.751 123.784 125.601 123.287 125.298 122.949C124.999 122.614 124.551 122.447 123.953 122.447C122.757 122.447 122.154 123.116 122.154 124.449V125.314H125.747H125.751ZM121.492 128.563C121.296 128.563 121.133 128.511 121.014 128.404C120.894 128.297 120.834 128.151 120.834 127.967V124.483C120.834 123.519 121.108 122.769 121.659 122.224C122.21 121.68 122.974 121.406 123.953 121.406C124.593 121.406 125.149 121.53 125.618 121.774C126.088 122.019 126.447 122.374 126.695 122.841C126.943 123.304 127.066 123.853 127.066 124.483V127.967C127.066 128.151 127.007 128.297 126.887 128.404C126.767 128.511 126.609 128.563 126.413 128.563C126.216 128.563 126.054 128.507 125.93 128.4C125.806 128.289 125.747 128.147 125.747 127.967V126.343H122.154V127.967C122.154 128.147 122.095 128.293 121.971 128.4C121.847 128.511 121.689 128.563 121.488 128.563H121.492Z" fill="white"/>
<path d="M133.503 128.571C133.307 128.571 133.145 128.52 133.025 128.413C132.905 128.306 132.846 128.16 132.846 127.976V124.221C132.846 123.339 133.119 122.649 133.67 122.151C134.221 121.654 134.981 121.406 135.955 121.406C136.929 121.406 137.69 121.654 138.236 122.151C138.787 122.649 139.061 123.339 139.061 124.221V127.976C139.061 128.16 139.001 128.306 138.881 128.413C138.762 128.52 138.604 128.571 138.407 128.571C138.211 128.571 138.048 128.516 137.924 128.409C137.801 128.301 137.741 128.156 137.741 127.976V124.191C137.741 123.626 137.587 123.197 137.284 122.897C136.98 122.597 136.536 122.447 135.955 122.447C135.374 122.447 134.93 122.597 134.627 122.897C134.324 123.197 134.17 123.626 134.17 124.191V127.976C134.17 128.156 134.11 128.301 133.986 128.409C133.862 128.52 133.704 128.571 133.503 128.571Z" fill="white"/>
<path d="M145.839 128.571C145.643 128.571 145.481 128.52 145.361 128.413C145.241 128.306 145.182 128.16 145.182 127.976V122.001C145.182 121.817 145.241 121.671 145.361 121.564C145.481 121.457 145.639 121.406 145.839 121.406C146.04 121.406 146.19 121.457 146.314 121.564C146.442 121.671 146.502 121.817 146.502 122.001V127.976C146.502 128.16 146.437 128.306 146.314 128.413C146.19 128.52 146.027 128.571 145.839 128.571Z" fill="white"/>
<path d="M153.284 128.571C153.088 128.571 152.926 128.52 152.806 128.413C152.687 128.306 152.627 128.16 152.627 127.976V124.221C152.627 123.339 152.9 122.649 153.451 122.151C154.002 121.654 154.762 121.406 155.732 121.406C156.702 121.406 157.466 121.654 158.017 122.151C158.568 122.649 158.842 123.339 158.842 124.221V127.976C158.842 128.16 158.782 128.306 158.662 128.413C158.543 128.52 158.385 128.571 158.188 128.571C157.992 128.571 157.829 128.516 157.705 128.409C157.582 128.297 157.522 128.156 157.522 127.976V124.191C157.522 123.626 157.368 123.197 157.065 122.897C156.761 122.597 156.317 122.447 155.736 122.447C155.155 122.447 154.711 122.597 154.408 122.897C154.105 123.197 153.951 123.626 153.951 124.191V127.976C153.951 128.156 153.891 128.301 153.767 128.409C153.643 128.52 153.485 128.571 153.284 128.571Z" fill="white"/>
<path d="M168.111 128.571C167.363 128.571 166.714 128.43 166.167 128.143C165.616 127.856 165.198 127.444 164.907 126.909C164.617 126.373 164.471 125.734 164.471 124.997C164.471 124.26 164.617 123.621 164.907 123.081C165.198 122.541 165.616 122.126 166.163 121.839C166.71 121.551 167.355 121.406 168.094 121.406C168.709 121.406 169.277 121.513 169.802 121.723C170.323 121.937 170.712 122.216 170.964 122.571C171.045 122.679 171.084 122.786 171.084 122.901C171.084 123.069 170.994 123.219 170.815 123.351C170.733 123.411 170.635 123.441 170.516 123.441C170.417 123.441 170.319 123.42 170.217 123.377C170.114 123.334 170.033 123.274 169.969 123.193C169.742 122.936 169.482 122.747 169.187 122.631C168.888 122.516 168.525 122.456 168.094 122.456C167.372 122.456 166.808 122.679 166.406 123.129C166.001 123.579 165.8 124.204 165.8 125.006C165.8 125.807 166.005 126.424 166.411 126.87C166.816 127.316 167.385 127.539 168.115 127.539C168.717 127.539 169.187 127.423 169.529 127.191C169.871 126.96 170.041 126.639 170.041 126.227V126.009C170.041 125.867 170.011 125.773 169.947 125.721C169.883 125.67 169.777 125.64 169.623 125.64H168.324C168.141 125.64 167.991 125.597 167.889 125.507C167.782 125.417 167.731 125.293 167.731 125.134C167.731 124.976 167.782 124.839 167.884 124.753C167.987 124.663 168.132 124.62 168.324 124.62H170.251C170.635 124.62 170.917 124.701 171.096 124.864C171.276 125.027 171.366 125.284 171.366 125.636V126.026C171.366 126.531 171.229 126.977 170.96 127.367C170.686 127.757 170.306 128.057 169.815 128.271C169.324 128.486 168.756 128.597 168.124 128.597L168.111 128.571Z" fill="white"/>
<path d="M187.913 128.571C187.264 128.571 186.657 128.464 186.089 128.246C185.521 128.031 185.026 127.719 184.611 127.316C184.513 127.217 184.462 127.101 184.462 126.977C184.462 126.831 184.526 126.69 184.658 126.557C184.765 126.45 184.88 126.399 185.004 126.399C185.137 126.399 185.295 126.476 185.478 126.626C185.79 126.913 186.157 127.131 186.585 127.29C187.012 127.444 187.452 127.526 187.909 127.526C188.366 127.526 188.686 127.453 188.93 127.303C189.173 127.153 189.297 126.943 189.297 126.669C189.297 126.381 189.165 126.154 188.9 125.979C188.635 125.803 188.186 125.644 187.55 125.507C186.55 125.289 185.824 124.997 185.371 124.641C184.919 124.281 184.692 123.823 184.692 123.257C184.692 122.897 184.812 122.58 185.051 122.297C185.29 122.014 185.623 121.796 186.051 121.641C186.478 121.487 186.965 121.406 187.516 121.406C188.131 121.406 188.678 121.509 189.16 121.71C189.639 121.911 190.006 122.194 190.258 122.563C190.343 122.704 190.386 122.82 190.386 122.923C190.378 123.09 190.296 123.231 190.138 123.351C190.053 123.411 189.955 123.441 189.839 123.441C189.634 123.441 189.464 123.36 189.335 123.201C189.143 122.97 188.887 122.786 188.567 122.653C188.246 122.52 187.896 122.456 187.52 122.456C187.05 122.456 186.683 122.529 186.422 122.67C186.162 122.811 186.029 123.009 186.029 123.261C186.029 123.514 186.157 123.72 186.409 123.883C186.666 124.046 187.106 124.2 187.734 124.346C188.43 124.513 188.989 124.697 189.412 124.907C189.835 125.117 190.147 125.361 190.339 125.649C190.531 125.936 190.63 126.274 190.63 126.673C190.63 127.071 190.519 127.384 190.292 127.676C190.066 127.963 189.75 128.186 189.34 128.344C188.93 128.499 188.451 128.58 187.909 128.58L187.913 128.571Z" fill="white"/>
<path d="M197.998 128.473C197.494 128.473 197.105 128.34 196.827 128.074C196.55 127.809 196.413 127.436 196.413 126.96V122.979C196.413 122.516 196.546 122.152 196.815 121.894C197.084 121.637 197.455 121.504 197.929 121.504H201.018C201.214 121.504 201.368 121.547 201.475 121.637C201.582 121.727 201.633 121.856 201.633 122.019C201.633 122.182 201.577 122.302 201.47 122.392C201.359 122.482 201.21 122.524 201.018 122.524H198.16C198.028 122.524 197.925 122.567 197.848 122.653C197.771 122.739 197.733 122.859 197.733 123.013V124.397H200.262C200.458 124.397 200.612 124.44 200.719 124.53C200.825 124.62 200.877 124.749 200.877 124.912C200.877 125.074 200.821 125.194 200.714 125.284C200.603 125.374 200.454 125.417 200.262 125.417H197.733V126.952C197.733 127.106 197.771 127.226 197.848 127.312C197.925 127.397 198.028 127.44 198.16 127.44H201.236C201.432 127.44 201.586 127.483 201.693 127.573C201.799 127.663 201.851 127.792 201.851 127.954C201.851 128.117 201.795 128.237 201.688 128.327C201.577 128.417 201.428 128.46 201.236 128.46H197.998V128.473Z" fill="white"/>
<path d="M210.872 125.074C211.308 125.074 211.649 125.031 211.893 124.946C212.136 124.86 212.311 124.723 212.414 124.543C212.516 124.359 212.568 124.114 212.568 123.801C212.568 123.351 212.431 123.026 212.158 122.824C211.884 122.627 211.453 122.524 210.872 122.524H209.373C209.24 122.524 209.138 122.567 209.061 122.653C208.984 122.739 208.945 122.859 208.945 123.013V125.074H210.872ZM207.626 122.974C207.626 122.511 207.758 122.147 208.027 121.89C208.296 121.633 208.668 121.5 209.142 121.5H210.91C211.897 121.5 212.64 121.693 213.144 122.079C213.648 122.464 213.9 123.039 213.9 123.801C213.9 124.513 213.691 125.066 213.268 125.464C212.85 125.863 212.286 126.06 211.577 126.06L213.084 127.564C213.204 127.684 213.264 127.821 213.264 127.971C213.264 128.121 213.196 128.271 213.055 128.391C212.909 128.503 212.768 128.563 212.627 128.563C212.435 128.563 212.26 128.477 212.102 128.306L209.958 126.103H208.945V127.976C208.945 128.16 208.881 128.306 208.758 128.413C208.634 128.52 208.471 128.571 208.279 128.571C208.087 128.571 207.92 128.52 207.805 128.413C207.685 128.306 207.626 128.16 207.626 127.976V122.979V122.974Z" fill="white"/>
<path d="M222.947 128.571C222.486 128.571 222.101 128.409 221.794 128.087C221.491 127.766 221.222 127.234 220.991 126.489L219.611 122.087C219.586 122.006 219.573 121.924 219.573 121.839C219.573 121.547 219.778 121.401 220.188 121.401C220.393 121.401 220.551 121.44 220.658 121.521C220.769 121.603 220.85 121.731 220.901 121.911L222.272 126.394C222.396 126.797 222.516 127.093 222.618 127.269C222.725 127.449 222.832 127.539 222.947 127.539C223.063 127.539 223.169 127.449 223.276 127.269C223.383 127.089 223.498 126.797 223.622 126.394L224.993 121.911C225.044 121.731 225.126 121.603 225.237 121.521C225.348 121.44 225.501 121.401 225.707 121.401C226.117 121.401 226.322 121.547 226.322 121.839C226.322 121.924 226.309 122.01 226.283 122.087L224.904 126.489C224.673 127.234 224.404 127.766 224.1 128.087C223.797 128.409 223.413 128.571 222.947 128.571Z" fill="white"/>
<path d="M233.053 128.571C232.853 128.571 232.695 128.52 232.575 128.413C232.455 128.306 232.396 128.16 232.396 127.976V122.001C232.396 121.817 232.455 121.671 232.575 121.564C232.695 121.457 232.853 121.406 233.053 121.406C233.254 121.406 233.404 121.457 233.528 121.564C233.651 121.671 233.715 121.817 233.715 122.001V127.976C233.715 128.16 233.651 128.306 233.528 128.413C233.404 128.52 233.241 128.571 233.053 128.571Z" fill="white"/>
<path d="M243.433 128.571C242.685 128.571 242.036 128.43 241.489 128.143C240.938 127.856 240.52 127.444 240.229 126.909C239.939 126.373 239.794 125.734 239.794 124.997C239.794 124.26 239.939 123.621 240.229 123.081C240.52 122.541 240.938 122.126 241.485 121.839C242.032 121.551 242.673 121.406 243.416 121.406C244.031 121.406 244.599 121.513 245.124 121.723C245.646 121.937 246.034 122.216 246.286 122.571C246.367 122.679 246.406 122.786 246.406 122.901C246.406 123.069 246.316 123.219 246.137 123.351C246.056 123.411 245.957 123.441 245.838 123.441C245.74 123.441 245.641 123.42 245.539 123.377C245.441 123.334 245.355 123.274 245.291 123.193C245.065 122.936 244.804 122.747 244.505 122.631C244.206 122.516 243.843 122.456 243.412 122.456C242.69 122.456 242.126 122.679 241.724 123.129C241.319 123.579 241.118 124.204 241.118 125.006C241.118 125.807 241.323 126.424 241.729 126.87C242.134 127.316 242.703 127.539 243.429 127.539C244.262 127.539 244.928 127.294 245.423 126.801C245.628 126.609 245.816 126.514 245.992 126.514C246.111 126.514 246.218 126.553 246.32 126.634C246.474 126.767 246.547 126.913 246.547 127.071C246.547 127.191 246.504 127.307 246.419 127.419C246.133 127.783 245.731 128.07 245.201 128.276C244.676 128.481 244.086 128.584 243.429 128.584L243.433 128.571Z" fill="white"/>
<path d="M253.915 128.473C253.411 128.473 253.022 128.34 252.745 128.074C252.467 127.809 252.326 127.436 252.326 126.96V122.979C252.326 122.516 252.458 122.152 252.728 121.894C252.997 121.637 253.368 121.504 253.842 121.504H256.931C257.127 121.504 257.281 121.547 257.388 121.637C257.494 121.727 257.546 121.856 257.546 122.019C257.546 122.182 257.49 122.302 257.383 122.392C257.272 122.482 257.123 122.524 256.931 122.524H254.073C253.941 122.524 253.838 122.567 253.761 122.653C253.684 122.739 253.646 122.859 253.646 123.013V124.397H256.179C256.375 124.397 256.529 124.44 256.636 124.53C256.743 124.62 256.794 124.749 256.794 124.912C256.794 125.074 256.738 125.194 256.632 125.284C256.521 125.374 256.371 125.417 256.179 125.417H253.646V126.952C253.646 127.106 253.684 127.226 253.761 127.312C253.838 127.397 253.941 127.44 254.073 127.44H257.149C257.349 127.44 257.499 127.483 257.606 127.573C257.712 127.663 257.764 127.792 257.764 127.954C257.764 128.117 257.708 128.237 257.601 128.327C257.49 128.417 257.341 128.46 257.149 128.46H253.911L253.915 128.473Z" fill="white"/>
<path d="M266.896 128.571C266.247 128.571 265.64 128.464 265.068 128.246C264.5 128.031 264.004 127.719 263.59 127.316C263.492 127.217 263.44 127.101 263.44 126.977C263.44 126.831 263.509 126.69 263.641 126.557C263.748 126.45 263.863 126.399 263.987 126.399C264.12 126.399 264.278 126.476 264.466 126.626C264.777 126.913 265.145 127.131 265.572 127.29C265.999 127.444 266.439 127.526 266.896 127.526C267.353 127.526 267.673 127.453 267.917 127.303C268.16 127.153 268.284 126.943 268.284 126.669C268.284 126.381 268.152 126.154 267.887 125.979C267.622 125.803 267.174 125.644 266.537 125.507C265.538 125.289 264.812 124.997 264.359 124.641C263.906 124.281 263.68 123.823 263.68 123.257C263.68 122.897 263.799 122.58 264.038 122.297C264.278 122.014 264.611 121.796 265.038 121.641C265.465 121.487 265.952 121.406 266.503 121.406C267.118 121.406 267.665 121.509 268.148 121.71C268.626 121.911 268.993 122.194 269.245 122.563C269.331 122.704 269.373 122.82 269.373 122.923C269.365 123.09 269.284 123.231 269.126 123.351C269.04 123.411 268.942 123.441 268.827 123.441C268.622 123.441 268.451 123.36 268.323 123.201C268.13 122.97 267.874 122.786 267.554 122.653C267.233 122.52 266.883 122.456 266.507 122.456C266.037 122.456 265.67 122.529 265.41 122.67C265.149 122.811 265.017 123.009 265.017 123.261C265.017 123.514 265.145 123.72 265.397 123.883C265.653 124.046 266.093 124.2 266.721 124.346C267.417 124.513 267.977 124.697 268.4 124.907C268.822 125.117 269.134 125.361 269.326 125.649C269.523 125.936 269.617 126.274 269.617 126.673C269.617 127.071 269.506 127.384 269.279 127.676C269.053 127.963 268.737 128.186 268.327 128.344C267.917 128.499 267.438 128.58 266.896 128.58V128.571Z" fill="white"/>
<path fill-rule="evenodd" clip-rule="evenodd" d="M188.229 46.5901C189.459 46.5901 190.459 47.593 190.459 48.8273C190.459 50.0615 189.459 51.0644 188.229 51.0644C186.999 51.0644 185.999 50.0615 185.999 48.8273C185.999 47.593 186.999 46.5901 188.229 46.5901ZM185.436 42.8701C189.946 42.8701 193.607 46.543 193.607 51.0687C193.607 55.5944 189.946 59.2673 185.436 59.2673C180.925 59.2673 177.264 55.5944 177.264 51.0687C177.264 46.543 180.925 42.8701 185.436 42.8701Z" fill="white"/>
<path fill-rule="evenodd" clip-rule="evenodd" d="M193.607 32.9099C194.517 32.9099 195.26 33.6514 195.26 34.5685C195.26 35.4856 194.521 36.2271 193.607 36.2271C192.693 36.2271 191.954 35.4856 191.954 34.5685C191.954 33.6514 192.693 32.9099 193.607 32.9099ZM191.954 30.9299C194.922 30.9299 197.332 33.3471 197.332 36.3256C197.332 39.3042 194.922 41.7214 191.954 41.7214C188.985 41.7214 186.576 39.3042 186.576 36.3256C186.576 33.3471 188.985 30.9299 191.954 30.9299Z" fill="white"/>
<path fill-rule="evenodd" clip-rule="evenodd" d="M168.969 30.7501C170.913 30.7501 172.489 32.3315 172.489 34.2815C172.489 36.2315 170.913 37.8129 168.969 37.8129C167.026 37.8129 165.449 36.2315 165.449 34.2815C165.449 32.3315 167.026 30.7501 168.969 30.7501ZM150.939 37.3672C152.242 31.0372 157.834 26.2715 164.531 26.2715C172.19 26.2715 178.409 32.5115 178.409 40.1958C178.409 47.8801 172.19 54.1201 164.531 54.1201C160.559 54.1201 156.975 52.4401 154.446 49.7529C153.566 47.9658 152.985 46.0072 152.772 43.9372C154.228 43.3715 155.783 42.9986 157.402 42.8572C158.273 42.7886 158.944 42.0601 158.944 41.1815V39.0515C158.944 38.1258 158.197 37.3715 157.27 37.3715H150.939V37.3672Z" fill="white"/>
<path fill-rule="evenodd" clip-rule="evenodd" d="M150.94 37.3671H140.667L140.658 37.3799C134.717 37.5899 129.54 40.8471 126.635 45.6342C126.323 46.1528 126.315 46.7999 126.614 47.3271C126.913 47.8542 127.468 48.1799 128.07 48.1799H130.983C131.428 48.1799 131.855 48.3556 132.167 48.6728C132.483 48.9899 132.658 49.4142 132.658 49.8599V57.4713H131.897C128.861 57.4713 126.396 59.9399 126.396 62.9913V64.5685C126.396 66.8528 124.922 68.8756 122.748 69.5656C120.578 70.2556 118.212 69.4499 116.9 67.5813C113.778 62.4728 111.822 56.5028 111.822 50.0785C111.822 32.9956 125.644 19.1313 142.666 19.1313C150.235 19.1313 157.172 21.8742 162.545 26.4213C156.753 27.2571 152.11 31.6842 150.94 37.3756V37.3671ZM173.505 50.8071C173.245 62.0056 167.043 71.7385 157.945 76.9585C156.347 77.8885 154.374 77.8928 152.768 76.9671C151.166 76.0413 150.179 74.3271 150.179 72.4713C150.128 67.9071 150.128 62.9871 150.128 62.9871C150.128 59.9399 147.668 57.4671 144.626 57.4671H142.038C142.636 53.2585 144.759 49.5428 147.83 46.9028C148.834 50.3999 150.914 53.4385 153.69 55.6371C154.335 56.1385 155.245 56.0999 155.847 55.5471C155.984 55.4228 156.125 55.2899 156.262 55.1571C156.911 54.5613 156.988 53.5585 156.433 52.8685C155.608 51.8356 154.408 49.6628 154.446 49.7442C156.975 52.4313 160.563 54.1113 164.531 54.1113C167.953 54.1113 171.088 52.8642 173.505 50.8028V50.8071Z" fill="white"/>
<path d="M253.018 105.403C253.488 105.403 253.821 105.313 254.018 105.133C254.21 104.953 254.308 104.653 254.308 104.237C254.308 103.264 253.761 102.501 252.668 101.944C251.574 101.387 250.096 101.109 248.243 101.109C246.389 101.109 244.924 101.499 243.86 102.274C242.792 103.054 242.258 104.096 242.258 105.403H253.022H253.018ZM248.657 118.161C246.274 118.161 244.198 117.729 242.425 116.867C240.652 116.006 239.285 114.789 238.333 113.22C237.376 111.651 236.898 109.809 236.898 107.696C236.898 104.276 237.889 101.623 239.871 99.7329C241.853 97.8429 244.642 96.8958 248.243 96.8958C250.459 96.8958 252.42 97.2429 254.124 97.9372C255.829 98.6315 257.157 99.6 258.114 100.834C259.071 102.073 259.549 103.483 259.549 105.069C259.549 106.401 259.126 107.43 258.28 108.154C257.435 108.879 256.239 109.239 254.684 109.239H242.173C242.173 110.794 242.72 111.969 243.813 112.761C244.907 113.554 246.521 113.949 248.657 113.949C250.899 113.949 252.813 113.447 254.393 112.449C255.282 111.891 255.974 111.613 256.469 111.613C256.939 111.613 257.396 111.836 257.841 112.281C258.31 112.753 258.545 113.267 258.545 113.824C258.545 114.493 258.268 115.02 257.712 115.41C256.551 116.301 255.192 116.979 253.642 117.454C252.091 117.926 250.43 118.161 248.657 118.161Z" fill="white"/>
<path d="M265.653 118.161C264.794 118.161 264.128 117.939 263.658 117.493C263.188 117.047 262.953 116.439 262.953 115.659V99.3986C262.953 98.5929 263.184 97.9758 263.641 97.5429C264.098 97.1143 264.743 96.8958 265.572 96.8958C266.4 96.8958 267.054 97.1186 267.524 97.5643C267.994 98.01 268.229 98.6186 268.229 99.3986V100.774C269.087 99.6643 270.091 98.8072 271.24 98.2115C272.389 97.6158 273.632 97.3158 274.96 97.3158H275.874C276.763 97.3158 277.446 97.5043 277.933 97.8772C278.42 98.2543 278.659 98.7858 278.659 99.4843C278.659 100.183 278.416 100.714 277.933 101.091C277.451 101.469 276.763 101.653 275.874 101.653H274.461C272.603 101.653 271.129 102.244 270.035 103.427C268.942 104.61 268.395 106.226 268.395 108.283V115.663C268.395 116.443 268.147 117.051 267.648 117.497C267.148 117.943 266.486 118.166 265.653 118.166V118.161Z" fill="white"/>
</svg>
