<?xml version="1.0" standalone="no"?>
<!DOCTYPE svg PUBLIC "-//W3C//DTD SVG 20010904//EN"
 "http://www.w3.org/TR/2001/REC-SVG-20010904/DTD/svg10.dtd">
<svg version="1.0" xmlns="http://www.w3.org/2000/svg"
 width="1280.000000pt" height="1280.000000pt" viewBox="0 0 1280.000000 1280.000000"
 preserveAspectRatio="xMidYMid meet">
<metadata>
Created by potrace 1.14, written by Peter Selinger 2001-2017
</metadata>
<g transform="translate(0.000000,1280.000000) scale(0.100000,-0.100000)"
fill="#000000" stroke="none">
<path d="M4828 9775 c-2 -2 -126 -13 -188 -16 -8 -1 -46 -5 -85 -11 -38 -5
-88 -12 -110 -14 -44 -5 -80 -12 -80 -14 0 -2 -14 -5 -60 -13 -69 -13 -92 -18
-120 -27 -16 -5 -41 -11 -55 -14 -14 -3 -40 -9 -58 -15 -18 -5 -34 -10 -37
-11 -9 -1 -31 -8 -110 -34 -44 -15 -89 -28 -100 -31 -11 -3 -29 -9 -40 -14
-11 -6 -54 -23 -97 -40 -42 -16 -98 -40 -125 -52 -26 -13 -50 -23 -53 -24 -8
-1 -144 -69 -150 -75 -3 -3 -30 -18 -60 -34 -30 -15 -98 -55 -150 -87 -52 -33
-104 -65 -115 -72 -23 -14 -245 -177 -261 -192 -7 -5 -33 -28 -59 -50 -79 -66
-175 -156 -246 -230 -125 -129 -167 -175 -161 -175 3 0 -1 -6 -9 -12 -9 -7
-33 -35 -55 -63 -58 -73 -68 -86 -79 -99 -17 -19 -53 -72 -121 -174 -35 -54
-68 -102 -74 -109 -5 -7 -10 -16 -10 -21 0 -5 -10 -22 -22 -38 -12 -15 -23
-34 -24 -42 -2 -7 -9 -21 -16 -30 -22 -26 -108 -199 -108 -217 0 -8 -4 -15 -9
-15 -5 0 -13 -10 -17 -22 -3 -12 -13 -36 -20 -55 -8 -18 -13 -34 -12 -36 2 -2
-4 -14 -13 -27 -22 -34 -131 -344 -134 -380 0 -9 -4 -20 -7 -25 -5 -10 -43
-159 -52 -206 -3 -13 -5 -26 -6 -29 -1 -3 -3 -9 -4 -15 -1 -5 -5 -30 -10 -55
-4 -25 -10 -58 -12 -75 -3 -16 -7 -37 -9 -45 -2 -8 -7 -43 -10 -77 -3 -34 -8
-72 -10 -85 -16 -83 -23 -461 -11 -609 10 -124 17 -202 22 -229 2 -14 7 -45
10 -70 3 -25 7 -53 10 -63 3 -10 7 -32 10 -50 2 -18 9 -57 15 -87 20 -96 27
-128 39 -165 5 -16 11 -41 14 -55 10 -49 48 -175 57 -186 5 -6 7 -13 4 -16 -3
-3 1 -18 10 -34 8 -16 15 -35 15 -42 0 -7 9 -34 21 -59 11 -25 21 -54 22 -64
1 -10 4 -19 8 -19 4 0 9 -10 13 -23 3 -13 15 -44 26 -70 11 -26 21 -49 21 -52
-1 -12 165 -333 220 -427 93 -157 196 -246 345 -297 107 -38 235 -43 334 -16
30 9 60 17 66 18 6 2 41 18 79 37 125 64 242 202 288 341 24 69 29 120 32 299
2 91 6 175 9 187 16 70 40 143 47 143 5 0 8 3 7 8 -10 29 139 215 207 260 37
24 161 82 184 87 12 2 30 6 39 9 35 11 78 15 154 17 l78 2 0 451 c0 270 -4
465 -10 486 -12 43 -54 91 -100 115 -30 16 -65 19 -250 20 -242 3 -266 8 -319
71 -43 53 -55 119 -34 184 9 27 20 50 25 50 4 0 8 4 8 9 0 8 54 93 78 122 6 8
35 43 63 79 29 36 63 75 76 86 12 12 23 24 23 27 0 3 26 30 57 59 31 29 64 60
73 68 57 55 289 220 308 220 5 0 15 6 21 14 7 8 26 18 42 21 16 4 29 10 29 15
0 23 351 152 480 176 14 2 32 7 40 10 8 3 37 8 65 11 27 3 53 7 56 9 21 13
323 17 1185 17 l982 0 45 -26 c91 -53 105 -98 102 -313 -2 -160 -7 -182 -51
-231 -36 -40 -81 -59 -159 -68 -89 -9 -121 -15 -220 -37 -49 -11 -97 -21 -105
-23 -8 -2 -16 -4 -17 -5 -2 -2 -6 -3 -10 -4 -5 -1 -40 -12 -79 -25 -68 -22
-72 -25 -70 -52 0 -16 3 -29 6 -29 3 0 5 -14 4 -31 0 -17 7 -66 17 -108 10
-42 18 -78 19 -81 16 -81 94 -301 129 -364 11 -20 18 -36 15 -36 -2 0 4 -10
16 -22 11 -12 20 -28 20 -35 0 -7 4 -13 10 -13 5 0 9 -3 8 -7 -3 -7 39 -82 51
-93 4 -3 15 -22 25 -42 11 -21 23 -38 28 -38 4 0 8 -7 8 -15 0 -8 5 -15 10
-15 6 0 10 -6 10 -12 0 -7 12 -26 26 -43 54 -63 71 -132 51 -209 -9 -32 -103
-136 -123 -136 -8 0 -14 -4 -14 -10 0 -28 -127 -32 -179 -5 -75 38 -256 211
-351 335 -19 25 -37 47 -40 50 -14 13 -99 139 -115 170 -10 19 -21 37 -24 40
-14 11 -110 220 -140 305 -18 50 -35 98 -39 108 -7 16 -22 4 -102 -75 -52 -51
-108 -109 -123 -128 -15 -19 -39 -48 -53 -65 -13 -16 -37 -48 -52 -70 -15 -22
-29 -42 -32 -45 -3 -3 -14 -21 -24 -40 -11 -19 -22 -37 -25 -40 -15 -13 -111
-200 -111 -217 0 -7 -4 -13 -8 -13 -5 0 -9 -6 -9 -12 0 -7 -7 -29 -15 -48 -16
-36 -50 -127 -54 -145 -6 -23 -14 -56 -19 -72 -11 -42 -44 -199 -45 -215 0
-15 17 -17 178 -18 203 -1 226 -3 313 -30 119 -36 245 -127 321 -230 32 -44
80 -130 72 -130 -4 0 -2 -6 4 -12 12 -15 31 -84 38 -136 3 -20 7 -300 9 -622
3 -322 7 -605 11 -630 3 -25 6 -57 7 -73 1 -15 5 -27 9 -27 5 0 7 -3 6 -7 -4
-12 34 -107 49 -121 7 -7 13 -19 13 -25 0 -21 144 -177 163 -177 5 0 24 -12
43 -26 19 -15 34 -22 34 -18 0 5 4 5 8 -1 9 -12 95 -45 142 -53 19 -4 80 -7
135 -7 84 1 113 5 183 30 45 15 82 32 82 37 0 4 3 7 8 6 14 -4 322 194 372
239 14 13 28 23 31 23 3 0 17 9 30 21 13 11 33 28 44 37 149 123 204 173 298
267 72 73 178 191 234 261 27 34 56 69 66 78 9 10 17 21 17 24 0 4 16 25 35
47 19 22 35 45 35 52 0 6 3 13 8 15 9 4 146 215 163 251 7 15 16 27 21 27 5 0
7 4 3 9 -3 5 -1 12 4 15 9 6 153 289 158 311 1 6 21 55 43 110 23 55 50 125
60 155 23 70 71 229 75 249 2 9 4 16 5 16 1 0 4 11 6 25 3 14 9 43 15 65 6 22
13 50 15 63 2 12 6 32 8 45 27 138 41 225 51 327 1 19 4 35 5 35 0 0 4 56 6
125 l6 125 82 81 c131 128 257 301 324 444 47 102 75 166 77 180 1 8 12 49 25
90 12 41 25 89 27 105 7 38 11 60 13 60 1 0 3 18 6 40 18 160 18 349 0 459
-29 167 -54 264 -87 328 -5 10 -9 23 -9 28 0 6 -10 32 -21 58 -12 26 -21 49
-20 51 2 2 -1 7 -6 10 -4 3 -19 28 -33 56 -27 53 -105 177 -136 215 -73 89
-104 123 -168 185 -81 78 -123 115 -132 115 -3 0 -25 16 -48 35 -24 19 -48 35
-55 35 -6 0 -11 4 -11 8 0 17 -294 159 -365 177 -5 1 -17 5 -25 8 -14 6 -121
33 -165 42 -102 20 -194 28 -320 27 -142 -2 -196 -5 -211 -15 -6 -3 -20 3 -30
15 -11 11 -73 60 -139 109 -66 49 -124 93 -130 97 -5 4 -28 19 -50 32 -22 13
-41 28 -43 32 -2 4 -8 8 -14 8 -5 0 -22 8 -36 19 -94 66 -443 241 -582 290
-19 7 -44 17 -55 22 -48 20 -201 68 -337 104 -10 3 -26 7 -35 10 -54 15 -193
43 -248 51 -11 1 -20 3 -20 4 0 2 -13 4 -30 5 -16 2 -30 4 -30 5 0 0 -18 3
-40 6 -59 7 -125 14 -170 20 -47 5 -511 14 -517 9z m3338 -1349 c73 -15 224
-119 224 -154 0 -7 4 -12 8 -12 14 0 43 -59 61 -123 18 -64 20 -135 6 -197
-31 -145 -172 -285 -308 -308 -72 -12 -197 -5 -213 11 -4 4 -14 7 -21 7 -22 0
-116 64 -156 106 -36 38 -83 121 -93 166 -11 44 -12 157 -3 200 16 70 65 156
113 197 10 9 26 23 35 32 22 21 71 51 71 43 0 -4 7 -1 15 6 36 30 174 44 261
26z"/>
<path d="M10647 8414 c-1 -2 -15 -5 -30 -8 -15 -3 -39 -8 -53 -11 -37 -8 -153
-64 -194 -94 -247 -183 -328 -492 -202 -773 14 -32 29 -58 34 -58 4 0 8 -5 8
-11 0 -20 94 -126 137 -155 24 -16 43 -32 43 -36 0 -5 7 -8 16 -8 8 0 22 -7
30 -15 8 -8 52 -26 97 -41 97 -31 221 -41 298 -24 30 6 65 14 77 16 71 14 197
91 269 164 49 50 131 176 126 192 -2 4 1 8 5 8 5 0 9 6 10 13 1 6 10 50 20 96
33 150 13 284 -64 431 -32 60 -161 196 -209 220 -16 8 -32 17 -35 20 -9 10
-85 39 -145 56 -48 13 -229 27 -238 18z m360 -248 c138 -64 138 -271 1 -339
-90 -45 -212 -6 -254 81 -81 166 85 336 253 258z"/>
<path d="M9888 7035 c-2 -2 -25 -6 -53 -9 -50 -6 -88 -13 -92 -16 -2 -2 -7 -4
-13 -5 -5 -1 -12 -4 -15 -5 -3 -1 -8 -3 -12 -4 -117 -26 -284 -126 -392 -235
-68 -69 -75 -77 -127 -151 -42 -60 -133 -260 -119 -260 2 0 0 -11 -5 -24 -5
-13 -12 -44 -17 -67 -10 -56 -10 -295 0 -334 4 -16 9 -39 11 -50 6 -32 18 -79
25 -90 3 -5 6 -12 7 -15 2 -11 18 -48 46 -108 106 -223 372 -438 604 -487 10
-2 48 -10 84 -17 114 -24 299 -13 425 26 6 2 24 7 40 11 41 11 225 106 225
116 0 4 9 11 20 14 23 7 190 168 190 184 0 5 6 14 13 18 28 17 126 206 143
273 2 8 10 40 19 71 34 126 34 310 1 437 -8 29 -14 53 -15 55 0 1 -3 11 -6 22
-24 74 -106 236 -122 242 -7 3 -13 12 -13 19 0 20 -196 214 -215 214 -8 0 -15
3 -15 8 0 7 -28 25 -107 67 -54 29 -173 71 -246 85 -52 10 -262 22 -269 15z
m489 -438 c25 -6 133 -77 118 -77 -6 0 -5 -4 1 -8 22 -14 54 -92 58 -142 7
-83 -16 -142 -79 -204 -57 -56 -85 -67 -170 -71 -72 -3 -132 21 -185 75 -134
133 -85 351 93 421 40 16 113 18 164 6z"/>
</g>
</svg>
