<svg width="64" height="64" viewBox="0 0 64 64" fill="none" xmlns="http://www.w3.org/2000/svg">
<path d="M47 53H46V52.5C46.0005 51.9131 45.8526 51.3356 45.57 50.8213C45.7027 50.7293 45.8111 50.6065 45.886 50.4635C45.9609 50.3205 46 50.1614 46 50V48C45.9989 47.2047 45.6825 46.4422 45.1202 45.8798C44.5578 45.3175 43.7953 45.0011 43 45H41V4C41 3.20435 40.6839 2.44129 40.1213 1.87868C39.5587 1.31607 38.7957 1 38 1C37.2044 1 36.4413 1.31607 35.8787 1.87868C35.3161 2.44129 35 3.20435 35 4V45H33C32.2047 45.0011 31.4422 45.3175 30.8798 45.8798C30.3175 46.4422 30.0011 47.2047 30 48V50C30 50.1614 30.0391 50.3205 30.114 50.4635C30.1889 50.6065 30.2973 50.7293 30.43 50.8213C30.1474 51.3356 29.9995 51.9131 30 52.5V53C30.0031 55.6512 31.0576 58.193 32.9323 60.0677C34.807 61.9424 37.3488 62.9969 40 63H55C55.2652 63 55.5196 62.8946 55.7071 62.7071C55.8946 62.5196 56 62.2652 56 62C55.9973 59.6139 55.0482 57.3263 53.3609 55.6391C51.6737 53.9518 49.3861 53.0027 47 53ZM37 4C37 3.73478 37.1054 3.48043 37.2929 3.29289C37.4804 3.10536 37.7348 3 38 3C38.2652 3 38.5196 3.10536 38.7071 3.29289C38.8946 3.48043 39 3.73478 39 4V8H37V4ZM37 10H39V45H37V10ZM44 61H40C37.879 60.9976 35.8456 60.154 34.3458 58.6542C32.846 57.1544 32.0024 55.121 32 53V52.5C32.0003 52.1023 32.1585 51.7209 32.4397 51.4397C32.7209 51.1585 33.1023 51.0003 33.5 51H34V53C34 53.2652 34.1054 53.5196 34.2929 53.7071C34.4804 53.8946 34.7348 54 35 54C35.2652 54 35.5196 53.8946 35.7071 53.7071C35.8946 53.5196 36 53.2652 36 53V51H37V55C37 55.2652 37.1054 55.5196 37.2929 55.7071C37.4804 55.8946 37.7348 56 38 56C38.2652 56 38.5196 55.8946 38.7071 55.7071C38.8946 55.5196 39 55.2652 39 55V51H40V54C40 54.2652 40.1054 54.5196 40.2929 54.7071C40.4804 54.8946 40.7348 55 41 55C41.2652 55 41.5196 54.8946 41.7071 54.7071C41.8946 54.5196 42 54.2652 42 54V51H42.5C42.8977 51.0003 43.2791 51.1585 43.5603 51.4397C43.8415 51.7209 43.9997 52.1023 44 52.5V61ZM44 49H32V48C32.0004 47.7349 32.1058 47.4808 32.2933 47.2933C32.4808 47.1058 32.7349 47.0004 33 47H43C43.2651 47.0004 43.5192 47.1058 43.7067 47.2933C43.8942 47.4808 43.9996 47.7349 44 48V49ZM46 61V59H48C48.2652 59 48.5196 58.8946 48.7071 58.7071C48.8946 58.5196 49 58.2652 49 58C49 57.7348 48.8946 57.4804 48.7071 57.2929C48.5196 57.1054 48.2652 57 48 57H46V55H47C48.6827 55.0022 50.3085 55.6095 51.5806 56.711C52.8526 57.8126 53.6861 59.3349 53.9288 61H46Z" fill="#5CC2AA"/>
<path d="M41 56C40.7348 56 40.4804 56.1054 40.2929 56.2929C40.1054 56.4804 40 56.7348 40 57V58C40 58.2652 40.1054 58.5196 40.2929 58.7071C40.4804 58.8946 40.7348 59 41 59C41.2652 59 41.5196 58.8946 41.7071 58.7071C41.8946 58.5196 42 58.2652 42 58V57C42 56.7348 41.8946 56.4804 41.7071 56.2929C41.5196 56.1054 41.2652 56 41 56ZM30 39H28V35C27.9983 33.4092 27.3656 31.8841 26.2408 30.7592C25.1159 29.6344 23.5908 29.0017 22 29H16C14.4092 29.0017 12.8841 29.6344 11.7592 30.7592C10.6344 31.8841 10.0017 33.4092 10 35V39H8C7.73478 39 7.48043 39.1054 7.29289 39.2929C7.10536 39.4804 7 39.7348 7 40V44C7 44.2652 7.10536 44.5196 7.29289 44.7071C7.48043 44.8946 7.73478 45 8 45H9.05375L10.0013 62.055C10.0155 62.3103 10.1269 62.5505 10.3126 62.7262C10.4983 62.902 10.7443 62.9999 11 63H27C27.2557 62.9999 27.5017 62.902 27.6874 62.7262C27.8731 62.5505 27.9845 62.3103 27.9988 62.055L28.9463 45H30C30.2652 45 30.5196 44.8946 30.7071 44.7071C30.8946 44.5196 31 44.2652 31 44V40C31 39.7348 30.8946 39.4804 30.7071 39.2929C30.5196 39.1054 30.2652 39 30 39ZM12 35C12.0014 33.9396 12.4233 32.923 13.1731 32.1731C13.923 31.4233 14.9396 31.0014 16 31H22C23.0604 31.0014 24.077 31.4233 24.8269 32.1731C25.5767 32.923 25.9986 33.9396 26 35V39H12V35ZM26.0537 61H11.9462L11.0575 45H26.9425L26.0537 61ZM29 43H9V41H29V43Z" fill="#5CC2AA"/>
<path d="M14 49H19C19.2652 49 19.5196 48.8946 19.7071 48.7071C19.8946 48.5196 20 48.2652 20 48C20 47.7348 19.8946 47.4804 19.7071 47.2929C19.5196 47.1054 19.2652 47 19 47H14C13.7348 47 13.4804 47.1054 13.2929 47.2929C13.1054 47.4804 13 47.7348 13 48C13 48.2652 13.1054 48.5196 13.2929 48.7071C13.4804 48.8946 13.7348 49 14 49V49ZM22 49H23C23.2652 49 23.5196 48.8946 23.7071 48.7071C23.8946 48.5196 24 48.2652 24 48C24 47.7348 23.8946 47.4804 23.7071 47.2929C23.5196 47.1054 23.2652 47 23 47H22C21.7348 47 21.4804 47.1054 21.2929 47.2929C21.1054 47.4804 21 47.7348 21 48C21 48.2652 21.1054 48.5196 21.2929 48.7071C21.4804 48.8946 21.7348 49 22 49ZM12 27C12.9889 27 13.9556 26.7068 14.7779 26.1574C15.6001 25.6079 16.241 24.8271 16.6194 23.9134C16.9978 22.9998 17.0969 21.9945 16.9039 21.0246C16.711 20.0546 16.2348 19.1637 15.5355 18.4645C14.8363 17.7652 13.9454 17.289 12.9755 17.0961C12.0055 16.9032 11.0002 17.0022 10.0866 17.3806C9.17295 17.759 8.39206 18.3999 7.84265 19.2222C7.29324 20.0444 7 21.0111 7 22C7.00149 23.3256 7.52875 24.5965 8.46611 25.5339C9.40347 26.4713 10.6744 26.9985 12 27V27ZM12 19C12.5933 19 13.1734 19.176 13.6667 19.5056C14.1601 19.8352 14.5446 20.3038 14.7716 20.852C14.9987 21.4001 15.0581 22.0033 14.9424 22.5853C14.8266 23.1672 14.5409 23.7018 14.1213 24.1213C13.7018 24.5409 13.1672 24.8266 12.5853 24.9424C12.0033 25.0581 11.4001 24.9987 10.852 24.7716C10.3038 24.5446 9.83524 24.1601 9.50559 23.6667C9.17595 23.1734 9 22.5933 9 22C9.00093 21.2046 9.31729 20.4421 9.8797 19.8797C10.4421 19.3173 11.2046 19.0009 12 19V19ZM22 19C23.5823 19 25.129 18.5308 26.4446 17.6518C27.7602 16.7727 28.7855 15.5233 29.391 14.0615C29.9965 12.5997 30.155 10.9911 29.8463 9.43928C29.5376 7.88743 28.7757 6.46197 27.6569 5.34315C26.538 4.22433 25.1126 3.4624 23.5607 3.15372C22.0089 2.84504 20.4003 3.00347 18.9385 3.60897C17.4767 4.21447 16.2273 5.23985 15.3482 6.55544C14.4692 7.87103 14 9.41775 14 11C14.0024 13.121 14.846 15.1545 16.3458 16.6542C17.8456 18.154 19.879 18.9976 22 19ZM22 5C23.1867 5 24.3467 5.3519 25.3334 6.01119C26.3201 6.67047 27.0892 7.60755 27.5433 8.7039C27.9974 9.80026 28.1162 11.0067 27.8847 12.1705C27.6532 13.3344 27.0818 14.4035 26.2426 15.2426C25.4035 16.0818 24.3344 16.6532 23.1705 16.8847C22.0067 17.1162 20.8003 16.9974 19.7039 16.5433C18.6075 16.0892 17.6705 15.3201 17.0112 14.3334C16.3519 13.3467 16 12.1867 16 11C16.0018 9.40925 16.6345 7.88417 17.7593 6.75934C18.8842 5.63451 20.4093 5.00179 22 5V5ZM23 24C23 24.5933 23.1759 25.1734 23.5056 25.6667C23.8352 26.1601 24.3038 26.5446 24.852 26.7716C25.4001 26.9987 26.0033 27.0581 26.5853 26.9424C27.1672 26.8266 27.7018 26.5409 28.1213 26.1213C28.5409 25.7018 28.8266 25.1672 28.9424 24.5853C29.0581 24.0033 28.9987 23.4001 28.7716 22.852C28.5446 22.3038 28.1601 21.8352 27.6667 21.5056C27.1734 21.176 26.5933 21 26 21C25.2046 21.0009 24.4421 21.3173 23.8797 21.8797C23.3173 22.4421 23.0009 23.2046 23 24V24ZM27 24C27 24.1978 26.9414 24.3911 26.8315 24.5556C26.7216 24.72 26.5654 24.8482 26.3827 24.9239C26.2 24.9996 25.9989 25.0194 25.8049 24.9808C25.6109 24.9422 25.4327 24.847 25.2929 24.7071C25.153 24.5673 25.0578 24.3891 25.0192 24.1951C24.9806 24.0011 25.0004 23.8 25.0761 23.6173C25.1518 23.4346 25.28 23.2784 25.4444 23.1685C25.6089 23.0587 25.8022 23 26 23C26.2651 23.0003 26.5193 23.1058 26.7068 23.2932C26.8943 23.4807 26.9997 23.7349 27 24V24Z" fill="#4E70A9"/>
</svg>
